<svg width="22" height="25" viewBox="0 0 22 25" fill="none" xmlns="http://www.w3.org/2000/svg">
<path d="M20.233 21.8773C20.3605 22.5415 19.9395 23.1786 19.2906 23.3022C18.6417 23.4258 18.0122 22.9894 17.8847 22.3291C17.7573 21.6649 18.1821 21.0278 18.831 20.9042C19.4799 20.7807 20.1094 21.217 20.2369 21.8812L20.233 21.8773Z" fill="white"/>
<path d="M14.5161 22.974C14.6436 23.6382 14.2226 24.2753 13.5737 24.3989C12.9248 24.5225 12.2953 24.0861 12.1678 23.4258C12.0403 22.7616 12.4652 22.1245 13.1102 22.0009C13.7591 21.8773 14.3887 22.3137 14.5161 22.9779V22.974Z" fill="white"/>
<path d="M20.9858 8.4121C20.5571 8.01823 19.9584 7.85604 19.3443 7.97575L6.79156 10.3853C6.70272 10.4008 6.61775 10.4239 6.53664 10.451L5.72168 8.85617C5.55946 8.53953 5.25434 8.32329 4.90286 8.28081L1.21428 7.80584C0.627193 7.72861 0.0864612 8.14566 0.00921348 8.7326C-0.0680342 9.31955 0.349101 9.86016 0.936183 9.93739L4.06086 10.339L4.9801 12.1384L7.9271 17.7917L9.17079 20.2206C9.73856 21.2863 11.0634 21.9196 12.2491 21.6918L20.1322 20.1781C20.7155 20.0661 21.0978 19.5023 20.9858 18.9192C20.8738 18.3361 20.3099 17.9539 19.7267 18.0658L11.8436 19.5795C11.5886 19.6297 11.1908 19.4367 11.0749 19.2243L10.8509 18.7879L18.9503 17.2356C19.9971 17.0348 20.8738 16.0849 20.9897 15.0268L21.542 10.0146C21.6115 9.39292 21.403 8.80983 20.9781 8.4121H20.9858ZM19.2246 11.4936L16.8762 11.9454L16.6329 10.6827L19.3713 10.1575L19.2246 11.4974V11.4936ZM14.7635 12.3508L12.9173 12.7061L12.674 11.4434L14.5202 11.0881L14.7635 12.3508ZM9.76173 16.5367L9.25963 15.5945L11.2101 15.2199L11.4535 16.4826L10.1711 16.7298C10.0553 16.7529 9.81581 16.6371 9.76173 16.5328V16.5367ZM13.3229 14.8145L15.1691 14.4592L15.4124 15.7219L13.5662 16.0772L13.3229 14.8145ZM10.5612 11.845L10.8046 13.1077L8.20134 13.6058L7.5679 12.4165L10.5612 11.8411V11.845ZM18.5525 15.1234L17.5251 15.3203L17.2818 14.0576L18.9774 13.7332L18.8615 14.7913C18.8499 14.911 18.6684 15.1041 18.5525 15.1234Z" fill="white"/>
<path d="M9.94892 2.29436L8.65485 4.20239L10.5633 5.49617L11.8574 3.58814L9.94892 2.29436Z" fill="white"/>
<path d="M17.7062 3.95552L16.2133 5.7124L17.9705 7.20499L19.4635 5.44811L17.7062 3.95552Z" fill="white"/>
<path d="M9.45909 6.2422L7.44373 7.3623L8.56408 9.37721L10.5795 8.25711L9.45909 6.2422Z" fill="white"/>
<path d="M14.5457 5.93832L13.9592 7.58228L15.6035 8.16863L16.19 6.52468L14.5457 5.93832Z" fill="white"/>
<path d="M12.7845 4.79543L11.2997 5.71362L12.2181 7.19799L13.7029 6.27979L12.7845 4.79543Z" fill="white"/>
<path d="M15.414 2.89132L14.7045 4.13599L15.9494 4.84535L16.659 3.60068L15.414 2.89132Z" fill="white"/>
<path d="M10.4533 -3.09455e-05L9.74377 1.24463L10.9887 1.954L11.6983 0.709338L10.4533 -3.09455e-05Z" fill="white"/>
<path d="M15.4076 0.668947L15.1328 2.07495L16.5391 2.34978L16.814 0.943776L15.4076 0.668947Z" fill="white"/>
<path d="M7.18215 4.48076L6.58588 5.78345L7.88886 6.37959L8.48514 5.0769L7.18215 4.48076Z" fill="white"/>
<path d="M12.7721 2.03111L12.4649 3.43042L13.8645 3.73756L14.1717 2.33825L12.7721 2.03111Z" fill="white"/>
</svg>
