<svg width="71" height="72" viewBox="0 0 71 72" fill="none" xmlns="http://www.w3.org/2000/svg">
<path d="M66.6445 64.5035C67.0643 66.4618 65.6776 68.3404 63.5403 68.7047C61.4029 69.0691 59.3292 67.7825 58.9094 65.8356C58.4895 63.8774 59.889 61.9988 62.0263 61.6344C64.1637 61.2701 66.2374 62.5567 66.6572 64.5149L66.6445 64.5035Z" fill="white"/>
<path d="M47.8144 67.7374C48.2342 69.6957 46.8475 71.5743 44.7102 71.9386C42.5729 72.303 40.4992 71.0164 40.0793 69.0695C39.6595 67.1113 41.0589 65.2327 43.1835 64.8683C45.3209 64.504 47.3946 65.7905 47.8144 67.7488V67.7374Z" fill="white"/>
<path d="M69.1247 24.8025C67.7125 23.6412 65.7405 23.163 63.7177 23.5159L22.3705 30.6204C22.0779 30.6659 21.798 30.7342 21.5309 30.8139L18.8465 26.1118C18.3122 25.1782 17.3071 24.5406 16.1494 24.4154L3.99967 23.015C2.0659 22.7872 0.284792 24.0169 0.0303481 25.7475C-0.224096 27.478 1.14989 29.072 3.08367 29.2997L13.376 30.4838L16.4038 35.7893L26.1109 52.4575L30.2074 59.6189C32.0776 62.7613 36.4413 64.6285 40.347 63.9567L66.3131 59.4937C68.2341 59.1635 69.4936 57.5012 69.1247 55.7821C68.7557 54.0629 66.8983 52.9357 64.9772 53.2659L39.0112 57.7289C38.1715 57.877 36.8611 57.3077 36.4795 56.6815L35.7416 55.395L62.4201 50.818C65.8678 50.226 68.7557 47.4252 69.1374 44.3056L70.9567 29.5274C71.1857 27.6943 70.4987 25.9752 69.0992 24.8025H69.1247ZM63.3233 33.888L55.5882 35.2201L54.7867 31.4971L63.8068 29.9486L63.3233 33.8994V33.888ZM48.6292 36.4155L42.548 37.463L41.7465 33.74L47.8277 32.6925L48.6292 36.4155ZM32.1539 48.7573L30.5001 45.9792L36.9248 44.8749L37.7263 48.5979L33.5025 49.3265C33.1208 49.3949 32.332 49.0533 32.1539 48.7459V48.7573ZM43.8838 43.6794L49.965 42.632L50.7665 46.355L44.6853 47.4024L43.8838 43.6794ZM34.7874 34.9241L35.5889 38.6471L27.0142 40.1158L24.9277 36.6091L34.7874 34.9127V34.9241ZM61.1097 44.5902L57.7256 45.1709L56.9241 41.4479L62.5091 40.4915L62.1274 43.6111C62.0893 43.964 61.4913 44.5333 61.1097 44.5902Z" fill="white"/>
<path d="M32.7733 6.7649L28.5107 12.3906L34.797 16.2053L39.0595 10.5795L32.7733 6.7649Z" fill="white"/>
<path d="M58.3228 11.6627L53.4053 16.8428L59.1936 21.2436L64.1111 16.0635L58.3228 11.6627Z" fill="white"/>
<path d="M31.1569 18.4045L24.5186 21.707L28.2089 27.6479L34.8472 24.3453L31.1569 18.4045Z" fill="white"/>
<path d="M47.9123 17.5094L45.9805 22.3564L51.3967 24.0853L53.3285 19.2382L47.9123 17.5094Z" fill="white"/>
<path d="M42.1131 14.1385L37.2227 16.8457L40.2478 21.2223L45.1382 18.515L42.1131 14.1385Z" fill="white"/>
<path d="M50.7717 8.52402L48.4346 12.1938L52.5353 14.2854L54.8724 10.6155L50.7717 8.52402Z" fill="white"/>
<path d="M34.4338 0.000123272L32.0967 3.66992L36.1974 5.76145L38.5345 2.09165L34.4338 0.000123272Z" fill="white"/>
<path d="M50.7521 1.97265L49.8467 6.11816L54.479 6.92848L55.3844 2.78297L50.7521 1.97265Z" fill="white"/>
<path d="M23.6584 13.2109L21.6943 17.0518L25.9862 18.8094L27.9503 14.9686L23.6584 13.2109Z" fill="white"/>
<path d="M42.0715 5.98848L41.0596 10.1143L45.6697 11.0199L46.6817 6.89407L42.0715 5.98848Z" fill="white"/>
</svg>
