<svg width="155" height="49" viewBox="0 0 155 49" fill="none" xmlns="http://www.w3.org/2000/svg">
<path d="M41.3061 43.8912C41.5662 45.2187 40.701 46.5018 39.3779 46.7517C38.0547 47.0017 36.7711 46.1241 36.511 44.7966C36.2509 43.4691 37.1161 42.186 38.4392 41.9361C39.7624 41.6861 41.046 42.5637 41.3061 43.8912Z" fill="#0C194E"/>
<path d="M29.6078 46.097C29.8679 47.4245 29.0028 48.7076 27.6796 48.9576C26.3565 49.2075 25.0729 48.3299 24.8128 47.0024C24.5527 45.6749 25.4178 44.3918 26.741 44.1419C28.0641 43.8919 29.3477 44.7695 29.6078 46.097Z" fill="#0C194E"/>
<path d="M144.315 21.8292C143.349 21.3238 142.591 20.6017 142.042 19.663C141.488 18.7243 141.217 17.6245 141.217 16.3637C141.217 15.1028 141.494 14.0253 142.054 13.0755C142.613 12.1312 143.377 11.4036 144.349 10.8982C145.322 10.3927 146.408 10.1372 147.618 10.1372C148.828 10.1372 149.913 10.3927 150.886 10.8982C151.859 11.4036 152.622 12.1312 153.182 13.0755C153.742 14.0253 154.019 15.1195 154.019 16.3637C154.019 17.6079 153.736 18.7021 153.171 19.6519C152.605 20.6017 151.83 21.3238 150.852 21.8292C149.874 22.3347 148.783 22.5902 147.573 22.5902C146.362 22.5902 145.277 22.3347 144.315 21.8292ZM149.416 18.5966C149.925 18.0744 150.179 17.3302 150.179 16.3637C150.179 15.3972 149.93 14.6529 149.439 14.1308C148.947 13.6087 148.336 13.3477 147.618 13.3477C146.9 13.3477 146.272 13.6032 145.786 14.1197C145.299 14.6307 145.056 15.3806 145.056 16.3637C145.056 17.3468 145.294 18.0744 145.774 18.5966C146.255 19.1187 146.854 19.3797 147.573 19.3797C148.291 19.3797 148.907 19.1187 149.416 18.5966Z" fill="#0C194E"/>
<path d="M42.8396 16.8801C41.9632 16.0858 40.7418 15.7692 39.4865 16.0025L13.8544 20.8348C13.6735 20.8682 13.5038 20.9126 13.3342 20.9681L11.6718 17.7744C11.3438 17.1412 10.7162 16.7079 9.99803 16.6191L2.47184 15.6637C1.26742 15.5137 0.170439 16.3469 0.0177666 17.5244C-0.134906 18.7075 0.713274 19.7851 1.91204 19.935L8.29601 20.7404L10.1733 24.3508L16.1954 35.6873L18.7343 40.5585C19.8935 42.697 22.5964 43.9689 25.0222 43.5079L41.1206 40.4752C42.3081 40.253 43.0884 39.1199 42.8622 37.9535C42.636 36.7871 41.4825 36.0206 40.2951 36.2428L24.1966 39.2755C23.6764 39.3754 22.8621 38.9922 22.6246 38.5589L22.1666 37.6814L38.7061 34.5653C40.8379 34.1654 42.6304 32.2603 42.8679 30.1385L43.9988 20.0794C44.1401 18.8297 43.7161 17.6577 42.8453 16.8634L42.8396 16.8801ZM39.2433 23.0677L34.4483 23.9731L33.9507 21.4403L39.543 20.3849L39.2433 23.0733V23.0677ZM30.1395 24.784L26.3679 25.495L25.8703 22.9622L29.6419 22.2512L30.1395 24.784ZM19.9218 33.1767L18.8983 31.2882L22.8791 30.5384L23.3767 33.0767L20.7586 33.5711C20.5211 33.6155 20.0348 33.3878 19.9218 33.1767ZM27.1935 29.7274L30.9651 29.0165L31.4627 31.5548L27.6911 32.2658L27.1935 29.7274ZM21.5616 23.7731L22.0592 26.3059L16.7439 27.3057L15.449 24.9229L21.5616 23.7731ZM37.8749 30.344L35.7714 30.7383L35.2738 28.2L38.7401 27.5446L38.5026 29.6663C38.4743 29.9052 38.1124 30.2884 37.8749 30.3329V30.344Z" fill="#0C194E"/>
<path d="M36.1454 7.93848L33.0957 11.4646L36.6854 14.4603L39.7351 10.9341L36.1454 7.93848Z" fill="#2849B2"/>
<path d="M19.3073 12.5368L15.1904 14.7849L17.479 18.8289L21.5959 16.5808L19.3073 12.5368Z" fill="#6BF9B9"/>
<path d="M29.6938 11.9027L28.4951 15.2039L31.8558 16.3813L33.0544 13.0802L29.6938 11.9027Z" fill="#6BF9B9"/>
<path d="M20.3085 4.59875L17.665 8.42822L21.5636 11.0249L24.207 7.1954L20.3085 4.59875Z" fill="#2849B2"/>
<path d="M26.1047 9.62864L23.0703 11.4724L24.9473 14.4531L27.9817 12.6093L26.1047 9.62864Z" fill="#2849B2"/>
<path d="M31.4622 5.8054L30.0146 8.30029L32.5545 9.72219L34.002 7.22731L31.4622 5.8054Z" fill="#2849B2"/>
<path d="M21.344 -0.000252277L19.8965 2.49463L22.4363 3.91653L23.8839 1.42165L21.344 -0.000252277Z" fill="#6BF9B9"/>
<path d="M31.4553 1.34577L30.8945 4.16406L33.7636 4.71495L34.3244 1.89666L31.4553 1.34577Z" fill="#6BF9B9"/>
<path d="M14.654 8.99671L13.4375 11.6079L16.0958 12.8029L17.3123 10.1917L14.654 8.99671Z" fill="#2849B2"/>
<path d="M26.0652 4.0721L25.4385 6.87695L28.2939 7.49261L28.9207 4.68776L26.0652 4.0721Z" fill="#6BF9B9"/>
<path d="M71.5586 11.5475C72.4633 12.4584 72.9157 13.7248 72.9157 15.3411V22.4119H69.1611V15.841C69.1611 15.0579 68.9518 14.458 68.5334 14.0303C68.115 13.6026 67.5382 13.3915 66.7975 13.3915C66.0567 13.3915 65.4856 13.6026 65.0615 14.0303C64.6431 14.458 64.4339 15.0579 64.4339 15.841V22.4119H60.6792V15.841C60.6792 15.0579 60.47 14.458 60.0516 14.0303C59.6332 13.6026 59.0564 13.3915 58.3156 13.3915C57.5749 13.3915 57.0038 13.6026 56.5797 14.0303C56.1613 14.458 55.952 15.0579 55.952 15.841V22.4119H52.1748V10.3088H55.952V11.8252C56.3366 11.3197 56.8342 10.9198 57.4562 10.6199C58.0725 10.3255 58.7737 10.1755 59.554 10.1755C60.4813 10.1755 61.3069 10.3699 62.0363 10.7587C62.7658 11.1476 63.3369 11.7086 63.7497 12.4306C64.1737 11.7641 64.7562 11.2253 65.4913 10.8032C66.2263 10.381 67.0293 10.1755 67.9001 10.1755C69.4325 10.1755 70.6482 10.631 71.5529 11.5419L71.5586 11.5475Z" fill="#0C194E"/>
<path d="M87.1005 17.2326L78.5565 17.2529C78.6149 18.0026 78.8651 18.5797 79.3015 18.973C79.7379 19.3719 80.2699 19.565 80.9032 19.5635C81.8475 19.5613 82.4968 19.1709 82.8681 18.3869L86.8884 18.3773C86.6868 19.1721 86.3154 19.8895 85.7798 20.5295C85.2442 21.1695 84.5725 21.6655 83.7648 22.0284C82.9571 22.3914 82.0528 22.5768 81.0519 22.5792C79.8419 22.5821 78.7669 22.3291 77.827 21.8259C76.8814 21.3227 76.1446 20.6024 75.6107 19.6649C75.0769 18.7275 74.8085 17.6284 74.8054 16.3675C74.8023 15.1067 75.0597 14.0118 75.5832 13.0663C76.1011 12.1264 76.8344 11.4026 77.7775 10.8894C78.7206 10.3817 79.7999 10.1236 81.0213 10.1207C82.2427 10.1178 83.2724 10.3598 84.201 10.8519C85.1295 11.344 85.855 12.0422 86.3831 12.9518C86.9056 13.8615 87.174 14.9218 87.177 16.1382C87.1778 16.4826 87.1561 16.8492 87.1118 17.2215L87.1005 17.2326ZM83.2956 15.1809C83.294 14.5422 83.0722 14.0373 82.6303 13.6662C82.1883 13.2895 81.6337 13.102 80.9721 13.1035C80.3105 13.1051 79.8077 13.2896 79.3732 13.6517C78.9387 14.0137 78.6742 14.5309 78.5741 15.1921L83.3012 15.1809L83.2956 15.1809Z" fill="#0C194E"/>
<path d="M94.6008 10.754C95.2624 10.3707 95.9975 10.1819 96.8061 10.1819V14.1088H95.7656C94.8213 14.1088 94.1145 14.3088 93.6452 14.7032C93.1759 15.1031 92.9384 15.7974 92.9384 16.7972V22.4127H89.1611V10.3096H92.9384V12.3259C93.3794 11.6594 93.9336 11.1372 94.5951 10.754H94.6008Z" fill="#0C194E"/>
<path d="M98.6551 13.0643C99.1753 12.1256 99.9048 11.4035 100.843 10.8925C101.776 10.3871 102.851 10.1316 104.055 10.1316C105.599 10.1316 106.894 10.5315 107.929 11.3258C108.969 12.1201 109.648 13.2421 109.97 14.6862H105.949C105.61 13.7586 104.954 13.2976 103.982 13.2976C103.292 13.2976 102.738 13.5642 102.325 14.0919C101.912 14.6196 101.709 15.3749 101.709 16.3581C101.709 17.3412 101.912 18.0966 102.325 18.6243C102.738 19.1519 103.286 19.413 103.982 19.413C104.954 19.413 105.61 18.952 105.949 18.0244H109.97C109.648 19.4408 108.963 20.5572 107.917 21.3626C106.871 22.1735 105.582 22.579 104.055 22.579C102.851 22.579 101.776 22.3235 100.843 21.8181C99.9104 21.3126 99.181 20.5905 98.6551 19.6518C98.1349 18.7131 97.8691 17.6134 97.8691 16.3525C97.8691 15.0917 98.1292 13.9975 98.6551 13.0532V13.0643Z" fill="#0C194E"/>
<path d="M111.95 13.0643C112.43 12.1256 113.081 11.4035 113.906 10.8925C114.732 10.3871 115.648 10.1316 116.666 10.1316C117.536 10.1316 118.294 10.3038 118.95 10.6537C119.606 11.0036 120.109 11.4535 120.466 12.0201V10.3093H124.243V22.4124H120.466V20.7016C120.098 21.2682 119.583 21.7236 118.933 22.068C118.277 22.4124 117.514 22.5901 116.649 22.5901C115.648 22.5901 114.737 22.3346 113.912 21.8181C113.086 21.3071 112.436 20.5739 111.955 19.6296C111.475 18.6854 111.237 17.5856 111.237 16.3414C111.237 15.0972 111.475 14.0086 111.955 13.0643H111.95ZM119.674 14.1696C119.154 13.6364 118.515 13.3698 117.763 13.3698C117.011 13.3698 116.377 13.6364 115.851 14.1641C115.331 14.6918 115.065 15.4194 115.065 16.3414C115.065 17.2634 115.326 18.0022 115.851 18.541C116.377 19.0797 117.011 19.3519 117.763 19.3519C118.515 19.3519 119.148 19.0853 119.674 18.5521C120.194 18.0188 120.46 17.2857 120.46 16.3636C120.46 15.4416 120.2 14.7084 119.674 14.1752V14.1696Z" fill="#0C194E"/>
<path d="M126.941 13.0638C127.421 12.1251 128.072 11.403 128.897 10.892C129.723 10.3866 130.639 10.1311 131.657 10.1311C132.465 10.1311 133.206 10.2977 133.879 10.631C134.546 10.9642 135.072 11.4141 135.457 11.9751V6.35962H139.234V22.4118H135.457V20.6789C135.106 21.2565 134.597 21.7175 133.941 22.0675C133.285 22.4118 132.522 22.5896 131.657 22.5896C130.639 22.5896 129.723 22.3341 128.897 21.8175C128.072 21.3065 127.421 20.5733 126.941 19.6291C126.46 18.6848 126.223 17.5851 126.223 16.3409C126.223 15.0967 126.46 14.008 126.941 13.0638ZM134.671 14.1691C134.15 13.6359 133.511 13.3693 132.759 13.3693C132.007 13.3693 131.374 13.6359 130.848 14.1636C130.328 14.6912 130.062 15.4189 130.062 16.3409C130.062 17.2629 130.322 18.0016 130.848 18.5404C131.374 19.0792 132.007 19.3514 132.759 19.3514C133.511 19.3514 134.145 19.0848 134.671 18.5515C135.191 18.0183 135.457 17.2851 135.457 16.3631C135.457 15.4411 135.196 14.7079 134.671 14.1747V14.1691Z" fill="#0C194E"/>
<path d="M58.368 33.438H56.338V42.4639H52.5608V33.438H51.1924V30.3553H52.5608V30.0109C52.5608 28.5223 52.9962 27.3892 53.8613 26.6172C54.7321 25.8451 56.0044 25.4563 57.6838 25.4563C57.9609 25.4563 58.1701 25.4618 58.3001 25.4785V28.6223C57.5764 28.5779 57.0731 28.6779 56.7791 28.9278C56.485 29.1722 56.338 29.6165 56.338 30.2497V30.3553H58.368V33.438Z" fill="#00C677"/>
<path d="M60.1002 33.109C60.5808 32.1703 61.2311 31.4483 62.0566 30.9373C62.8822 30.4318 63.8039 30.1763 64.8161 30.1763C65.6869 30.1763 66.4446 30.3485 67.1005 30.6984C67.7564 31.0428 68.2597 31.4982 68.6159 32.0648V30.354H72.3931V42.4571H68.6159V40.7463C68.2484 41.3129 67.7338 41.7683 67.0835 42.1127C66.4276 42.4571 65.6642 42.6348 64.7991 42.6348C63.7982 42.6348 62.8879 42.3793 62.0623 41.8628C61.2367 41.3518 60.5865 40.6186 60.1058 39.6743C59.6252 38.7301 59.3877 37.6303 59.3877 36.3861C59.3877 35.1419 59.6252 34.0533 60.1058 33.109H60.1002ZM67.8243 34.2144C67.3041 33.6811 66.6651 33.409 65.913 33.409C65.161 33.409 64.5277 33.6756 64.0018 34.2032C63.4816 34.7309 63.2158 35.4585 63.2158 36.3806C63.2158 37.3026 63.4759 38.0413 64.0018 38.5801C64.522 39.1244 65.161 39.3911 65.913 39.3911C66.6651 39.3911 67.2984 39.1244 67.8243 38.5912C68.3501 38.058 68.6103 37.3248 68.6103 36.4028C68.6103 35.4808 68.3501 34.7476 67.8243 34.2144ZM68.8986 27.338L63.5777 29.5264V26.9659L68.8986 24.4497V27.3324V27.338Z" fill="#00C677"/>
<path d="M75.1698 33.1068C75.69 32.1681 76.4194 31.446 77.3581 30.935C78.2911 30.4296 79.3654 30.1741 80.5699 30.1741C82.1135 30.1741 83.4084 30.574 84.4432 31.3683C85.478 32.1625 86.1622 33.2845 86.4845 34.7287H82.4641C82.1249 33.8011 81.4689 33.3401 80.4963 33.3401C79.8065 33.3401 79.2524 33.6067 78.8396 34.1344C78.4268 34.662 78.2232 35.4174 78.2232 36.4006C78.2232 37.3837 78.4268 38.1391 78.8396 38.6668C79.2524 39.1944 79.8008 39.4555 80.4963 39.4555C81.4689 39.4555 82.1249 38.9945 82.4641 38.0669H86.4845C86.1622 39.4833 85.478 40.5997 84.4319 41.4051C83.3858 42.216 82.0966 42.6215 80.5699 42.6215C79.3654 42.6215 78.2911 42.366 77.3581 41.8605C76.4251 41.3551 75.6956 40.633 75.1698 39.6943C74.6496 38.7556 74.3838 37.6559 74.3838 36.395C74.3838 35.1342 74.6439 34.0399 75.1698 33.0957V33.1068Z" fill="#00C677"/>
<path d="M88.7693 28.5187C88.3508 28.1355 88.1416 27.6634 88.1416 27.0968C88.1416 26.5303 88.3508 26.0359 88.7693 25.6527C89.1877 25.2694 89.7305 25.0806 90.3921 25.0806C91.0537 25.0806 91.5739 25.275 91.9923 25.6527C92.4108 26.0359 92.62 26.5192 92.62 27.0968C92.62 27.6745 92.4108 28.1355 91.9923 28.5187C91.5739 28.902 91.0367 29.0908 90.3921 29.0908C89.7475 29.0908 89.1877 28.902 88.7693 28.5187ZM92.2694 30.3517V42.4547H88.4922V30.3517H92.2694Z" fill="#00C677"/>
<path d="M98.7831 26.4023V42.4546H95.0059V26.4023H98.7831Z" fill="#00C677"/>
</svg>
