<svg width="49" height="56" viewBox="0 0 49 56" fill="none" xmlns="http://www.w3.org/2000/svg">
<path d="M45.8416 49.5683C46.1304 51.0732 45.1765 52.5168 43.7063 52.7968C42.2362 53.0767 40.8097 52.0881 40.5209 50.592C40.2321 49.0871 41.1948 47.6435 42.665 47.3636C44.1351 47.0836 45.5616 48.0722 45.8504 49.5771L45.8416 49.5683Z" fill="#0C194E"/>
<path d="M32.8904 52.0532C33.1792 53.5581 32.2253 55.0017 30.7552 55.2816C29.285 55.5616 27.8585 54.573 27.5698 53.0769C27.281 51.572 28.2436 50.1284 29.705 49.8484C31.1752 49.5685 32.6017 50.5571 32.8904 52.062V52.0532Z" fill="#0C194E"/>
<path d="M47.5483 19.06C46.5769 18.1676 45.2205 17.8001 43.8291 18.0714L15.3879 23.5308C15.1866 23.5658 14.9941 23.6183 14.8103 23.6796L12.9638 20.0662C12.5963 19.3487 11.9049 18.8588 11.1086 18.7626L2.75123 17.6864C1.42105 17.5114 0.195898 18.4563 0.0208753 19.7862C-0.154147 21.1161 0.79097 22.3409 2.12114 22.5159L9.20084 23.4258L11.2836 27.5029L17.9607 40.3117L20.7786 45.8149C22.065 48.2296 25.0666 49.6645 27.7532 49.1483L45.6143 45.7186C46.9357 45.4649 47.8021 44.1875 47.5483 42.8664C47.2945 41.5453 46.0169 40.6791 44.6955 40.9328L26.8344 44.3625C26.2568 44.4762 25.3554 44.0388 25.0929 43.5576L24.5853 42.5689L42.9365 39.0518C45.308 38.5968 47.2945 36.4445 47.5571 34.0473L48.8085 22.6909C48.966 21.2823 48.4934 19.9612 47.5308 19.06H47.5483ZM43.5578 26.0418L38.2371 27.0655L37.6858 24.2045L43.8903 23.0146L43.5578 26.0506V26.0418ZM33.4502 27.9841L29.2672 28.789L28.7159 25.9281L32.8989 25.1232L33.4502 27.9841ZM22.1175 37.4682L20.9799 35.3334L25.3992 34.4847L25.9505 37.3457L23.0451 37.9056C22.7826 37.9581 22.24 37.6957 22.1175 37.4594V37.4682ZM30.1861 33.5661L34.3691 32.7612L34.9204 35.6221L30.7374 36.427L30.1861 33.5661ZM23.929 26.838L24.4803 29.699L18.5821 30.8276L17.1469 28.1329L23.929 26.8292V26.838ZM42.0351 34.266L39.7073 34.7122L39.156 31.8512L42.9977 31.1163L42.7352 33.5136C42.7089 33.7848 42.2976 34.2223 42.0351 34.266Z" fill="#0C194E"/>
<path d="M22.5443 5.19813L19.6123 9.52124L23.9364 12.4526L26.8684 8.1295L22.5443 5.19813Z" fill="#2849B2"/>
<path d="M40.1189 8.96225L36.7363 12.9429L40.7179 16.3247L44.1005 12.3441L40.1189 8.96225Z" fill="#2849B2"/>
<path d="M21.4325 14.1435L16.8662 16.6814L19.4046 21.2466L23.9709 18.7088L21.4325 14.1435Z" fill="#6BF9B9"/>
<path d="M32.9587 13.4549L31.6299 17.1797L35.3555 18.5082L36.6843 14.7835L32.9587 13.4549Z" fill="#6BF9B9"/>
<path d="M28.9675 10.8652L25.6035 12.9456L27.6844 16.3087L31.0483 14.2283L28.9675 10.8652Z" fill="#2849B2"/>
<path d="M34.926 6.55149L33.3184 9.37158L36.1391 10.9788L37.7467 8.15873L34.926 6.55149Z" fill="#2849B2"/>
<path d="M23.6857 -1.78749e-06L22.0781 2.82007L24.8989 4.42731L26.5065 1.60724L23.6857 -1.78749e-06Z" fill="#6BF9B9"/>
<path d="M34.9119 1.51603L34.2891 4.70166L37.4754 5.32435L38.0983 2.13872L34.9119 1.51603Z" fill="#6BF9B9"/>
<path d="M16.2748 10.1525L14.9238 13.104L17.876 14.4547L19.2271 11.5032L16.2748 10.1525Z" fill="#2849B2"/>
<path d="M28.9392 4.60199L28.2432 7.77246L31.4143 8.46837L32.1104 5.2979L28.9392 4.60199Z" fill="#6BF9B9"/>
</svg>
