<svg width="1920" height="84" viewBox="0 0 1920 84" fill="none" xmlns="http://www.w3.org/2000/svg">
<rect width="1920" height="84" fill="white"/>
<path d="M363.278 36.3636H365.409L369.114 45.4091H369.25L372.955 36.3636H375.085V48H373.415V39.5795H373.307L369.875 47.983H368.489L365.057 39.5739H364.949V48H363.278V36.3636ZM381.263 48.1761C380.403 48.1761 379.662 47.9924 379.041 47.625C378.424 47.2538 377.946 46.733 377.609 46.0625C377.276 45.3883 377.109 44.5985 377.109 43.6932C377.109 42.7992 377.276 42.0114 377.609 41.3295C377.946 40.6477 378.416 40.1155 379.018 39.733C379.625 39.3504 380.333 39.1591 381.143 39.1591C381.636 39.1591 382.113 39.2405 382.575 39.4034C383.037 39.5663 383.452 39.822 383.82 40.1705C384.187 40.5189 384.477 40.9716 384.689 41.5284C384.901 42.0814 385.007 42.7538 385.007 43.5455V44.1477H378.07V42.875H383.342C383.342 42.428 383.251 42.0322 383.07 41.6875C382.888 41.339 382.632 41.0644 382.303 40.8636C381.977 40.6629 381.594 40.5625 381.155 40.5625C380.678 40.5625 380.261 40.6799 379.905 40.9148C379.553 41.1458 379.28 41.4489 379.087 41.8239C378.897 42.1951 378.803 42.5985 378.803 43.0341V44.0284C378.803 44.6117 378.905 45.108 379.109 45.517C379.318 45.9261 379.607 46.2386 379.979 46.4545C380.35 46.6667 380.784 46.7727 381.28 46.7727C381.602 46.7727 381.895 46.7273 382.161 46.6364C382.426 46.5417 382.655 46.4015 382.848 46.2159C383.041 46.0303 383.189 45.8011 383.291 45.5284L384.899 45.8182C384.77 46.2917 384.539 46.7064 384.206 47.0625C383.876 47.4148 383.462 47.6894 382.962 47.8864C382.465 48.0795 381.899 48.1761 381.263 48.1761ZM386.892 48V39.2727H388.534V40.6591H388.625C388.784 40.1894 389.064 39.8201 389.466 39.5511C389.871 39.2784 390.33 39.142 390.841 39.142C390.947 39.142 391.072 39.1458 391.216 39.1534C391.364 39.161 391.479 39.1705 391.562 39.1818V40.8068C391.494 40.7879 391.373 40.767 391.199 40.7443C391.025 40.7178 390.85 40.7045 390.676 40.7045C390.275 40.7045 389.917 40.7898 389.602 40.9602C389.292 41.1269 389.045 41.3598 388.864 41.6591C388.682 41.9545 388.591 42.2917 388.591 42.6705V48H386.892ZM396.396 48.1761C395.552 48.1761 394.824 47.9848 394.214 47.6023C393.608 47.2159 393.143 46.6837 392.817 46.0057C392.491 45.3277 392.328 44.5511 392.328 43.6761C392.328 42.7898 392.495 42.0076 392.828 41.3295C393.161 40.6477 393.631 40.1155 394.237 39.733C394.843 39.3504 395.557 39.1591 396.379 39.1591C397.042 39.1591 397.633 39.2822 398.152 39.5284C398.671 39.7708 399.089 40.1117 399.408 40.5511C399.73 40.9905 399.921 41.5038 399.982 42.0909H398.328C398.237 41.6818 398.029 41.3295 397.703 41.0341C397.381 40.7386 396.949 40.5909 396.408 40.5909C395.934 40.5909 395.519 40.7159 395.163 40.9659C394.811 41.2121 394.536 41.5644 394.339 42.0227C394.143 42.4773 394.044 43.0152 394.044 43.6364C394.044 44.2727 394.141 44.822 394.334 45.2841C394.527 45.7462 394.8 46.1042 395.152 46.358C395.508 46.6117 395.927 46.7386 396.408 46.7386C396.73 46.7386 397.021 46.6799 397.283 46.5625C397.548 46.4413 397.769 46.2689 397.947 46.0455C398.129 45.822 398.256 45.553 398.328 45.2386H399.982C399.921 45.803 399.737 46.3068 399.43 46.75C399.124 47.1932 398.713 47.5417 398.197 47.7955C397.686 48.0492 397.086 48.1761 396.396 48.1761ZM404.338 48.1932C403.785 48.1932 403.285 48.0909 402.838 47.8864C402.391 47.678 402.037 47.3769 401.776 46.983C401.518 46.589 401.389 46.1061 401.389 45.5341C401.389 45.0417 401.484 44.6364 401.673 44.3182C401.863 44 402.118 43.7481 402.44 43.5625C402.762 43.3769 403.122 43.2367 403.52 43.142C403.918 43.0473 404.323 42.9754 404.736 42.9261C405.259 42.8655 405.683 42.8163 406.009 42.7784C406.334 42.7367 406.571 42.6705 406.719 42.5795C406.866 42.4886 406.94 42.3409 406.94 42.1364V42.0966C406.94 41.6004 406.8 41.2159 406.52 40.9432C406.243 40.6705 405.83 40.5341 405.281 40.5341C404.709 40.5341 404.259 40.661 403.929 40.9148C403.603 41.1648 403.378 41.4432 403.253 41.75L401.656 41.3864C401.846 40.8561 402.122 40.428 402.486 40.1023C402.853 39.7727 403.276 39.5341 403.753 39.3864C404.23 39.2348 404.732 39.1591 405.259 39.1591C405.607 39.1591 405.976 39.2008 406.366 39.2841C406.76 39.3636 407.128 39.5114 407.469 39.7273C407.813 39.9432 408.096 40.2519 408.315 40.6534C408.535 41.0511 408.645 41.5682 408.645 42.2045V48H406.986V46.8068H406.918C406.808 47.0265 406.643 47.2424 406.423 47.4545C406.204 47.6667 405.921 47.8428 405.577 47.983C405.232 48.1231 404.819 48.1932 404.338 48.1932ZM404.707 46.8295C405.177 46.8295 405.579 46.7367 405.912 46.5511C406.249 46.3655 406.505 46.1231 406.679 45.8239C406.857 45.5208 406.946 45.197 406.946 44.8523V43.7273C406.885 43.7879 406.768 43.8447 406.594 43.8977C406.423 43.947 406.228 43.9905 406.009 44.0284C405.789 44.0625 405.575 44.0947 405.366 44.125C405.158 44.1515 404.984 44.1742 404.844 44.1932C404.514 44.2348 404.213 44.3049 403.94 44.4034C403.671 44.5019 403.455 44.6439 403.293 44.8295C403.134 45.0114 403.054 45.2538 403.054 45.5568C403.054 45.9773 403.209 46.2955 403.52 46.5114C403.83 46.7235 404.226 46.8295 404.707 46.8295ZM414.175 48.1705C413.47 48.1705 412.841 47.9905 412.288 47.6307C411.739 47.267 411.307 46.75 410.993 46.0795C410.682 45.4053 410.527 44.5966 410.527 43.6534C410.527 42.7102 410.684 41.9034 410.999 41.233C411.317 40.5625 411.752 40.0492 412.305 39.6932C412.858 39.3371 413.485 39.1591 414.186 39.1591C414.728 39.1591 415.163 39.25 415.493 39.4318C415.826 39.6098 416.084 39.8182 416.266 40.0568C416.451 40.2955 416.595 40.5057 416.697 40.6875H416.8V36.3636H418.499V48H416.839V46.642H416.697C416.595 46.8277 416.447 47.0398 416.254 47.2784C416.065 47.517 415.804 47.7254 415.47 47.9034C415.137 48.0814 414.705 48.1705 414.175 48.1705ZM414.55 46.7216C415.038 46.7216 415.451 46.5928 415.788 46.3352C416.129 46.0739 416.387 45.7121 416.561 45.25C416.739 44.7879 416.828 44.25 416.828 43.6364C416.828 43.0303 416.741 42.5 416.567 42.0455C416.393 41.5909 416.137 41.2367 415.8 40.983C415.463 40.7292 415.046 40.6023 414.55 40.6023C414.038 40.6023 413.612 40.7348 413.271 41C412.93 41.2652 412.673 41.6269 412.499 42.0852C412.328 42.5436 412.243 43.0606 412.243 43.6364C412.243 44.2197 412.33 44.7443 412.504 45.2102C412.679 45.6761 412.936 46.0455 413.277 46.3182C413.622 46.5871 414.046 46.7216 414.55 46.7216ZM424.599 48.1761C423.781 48.1761 423.067 47.9886 422.457 47.6136C421.848 47.2386 421.374 46.714 421.037 46.0398C420.7 45.3655 420.531 44.5777 420.531 43.6761C420.531 42.7708 420.7 41.9792 421.037 41.3011C421.374 40.6231 421.848 40.0966 422.457 39.7216C423.067 39.3466 423.781 39.1591 424.599 39.1591C425.418 39.1591 426.132 39.3466 426.741 39.7216C427.351 40.0966 427.825 40.6231 428.162 41.3011C428.499 41.9792 428.668 42.7708 428.668 43.6761C428.668 44.5777 428.499 45.3655 428.162 46.0398C427.825 46.714 427.351 47.2386 426.741 47.6136C426.132 47.9886 425.418 48.1761 424.599 48.1761ZM424.605 46.75C425.135 46.75 425.575 46.6098 425.923 46.3295C426.272 46.0492 426.529 45.6761 426.696 45.2102C426.866 44.7443 426.952 44.2311 426.952 43.6705C426.952 43.1136 426.866 42.6023 426.696 42.1364C426.529 41.6667 426.272 41.2898 425.923 41.0057C425.575 40.7216 425.135 40.5795 424.605 40.5795C424.071 40.5795 423.628 40.7216 423.276 41.0057C422.927 41.2898 422.668 41.6667 422.497 42.1364C422.33 42.6023 422.247 43.1136 422.247 43.6705C422.247 44.2311 422.33 44.7443 422.497 45.2102C422.668 45.6761 422.927 46.0492 423.276 46.3295C423.628 46.6098 424.071 46.75 424.605 46.75ZM437.104 41.4034L435.564 41.6761C435.5 41.4792 435.397 41.2917 435.257 41.1136C435.121 40.9356 434.935 40.7898 434.7 40.6761C434.465 40.5625 434.172 40.5057 433.82 40.5057C433.339 40.5057 432.937 40.6136 432.615 40.8295C432.293 41.0417 432.132 41.3163 432.132 41.6534C432.132 41.9451 432.24 42.1799 432.456 42.358C432.672 42.536 433.02 42.6818 433.501 42.7955L434.888 43.1136C435.691 43.2992 436.289 43.5852 436.683 43.9716C437.077 44.358 437.274 44.8598 437.274 45.4773C437.274 46 437.123 46.4659 436.82 46.875C436.52 47.2803 436.102 47.5985 435.564 47.8295C435.03 48.0606 434.411 48.1761 433.706 48.1761C432.729 48.1761 431.931 47.9678 431.314 47.5511C430.696 47.1307 430.318 46.5341 430.178 45.7614L431.82 45.5114C431.922 45.9394 432.132 46.2633 432.45 46.483C432.768 46.6989 433.183 46.8068 433.695 46.8068C434.251 46.8068 434.696 46.6913 435.03 46.4602C435.363 46.2254 435.53 45.9394 435.53 45.6023C435.53 45.3295 435.428 45.1004 435.223 44.9148C435.022 44.7292 434.714 44.589 434.297 44.4943L432.82 44.1705C432.005 43.9848 431.403 43.6894 431.013 43.2841C430.626 42.8788 430.433 42.3655 430.433 41.7443C430.433 41.2292 430.577 40.7784 430.865 40.392C431.153 40.0057 431.551 39.7045 432.058 39.4886C432.566 39.2689 433.147 39.1591 433.803 39.1591C434.746 39.1591 435.488 39.3636 436.03 39.7727C436.571 40.178 436.929 40.7216 437.104 41.4034Z" fill="#717171"/>
<path d="M189.278 48V36.3636H191.034V46.4886H196.307V48H189.278ZM198.173 48V39.2727H199.872V48H198.173ZM199.031 37.9261C198.736 37.9261 198.482 37.8277 198.27 37.6307C198.062 37.4299 197.957 37.1913 197.957 36.9148C197.957 36.6345 198.062 36.3958 198.27 36.1989C198.482 35.9981 198.736 35.8977 199.031 35.8977C199.327 35.8977 199.579 35.9981 199.787 36.1989C199.999 36.3958 200.105 36.6345 200.105 36.9148C200.105 37.1913 199.999 37.4299 199.787 37.6307C199.579 37.8277 199.327 37.9261 199.031 37.9261ZM208.697 41.4034L207.158 41.6761C207.093 41.4792 206.991 41.2917 206.851 41.1136C206.714 40.9356 206.529 40.7898 206.294 40.6761C206.059 40.5625 205.766 40.5057 205.413 40.5057C204.932 40.5057 204.531 40.6136 204.209 40.8295C203.887 41.0417 203.726 41.3163 203.726 41.6534C203.726 41.9451 203.834 42.1799 204.05 42.358C204.266 42.536 204.614 42.6818 205.095 42.7955L206.482 43.1136C207.285 43.2992 207.883 43.5852 208.277 43.9716C208.671 44.358 208.868 44.8598 208.868 45.4773C208.868 46 208.716 46.4659 208.413 46.875C208.114 47.2803 207.696 47.5985 207.158 47.8295C206.624 48.0606 206.004 48.1761 205.3 48.1761C204.322 48.1761 203.525 47.9678 202.908 47.5511C202.29 47.1307 201.911 46.5341 201.771 45.7614L203.413 45.5114C203.516 45.9394 203.726 46.2633 204.044 46.483C204.362 46.6989 204.777 46.8068 205.288 46.8068C205.845 46.8068 206.29 46.6913 206.624 46.4602C206.957 46.2254 207.124 45.9394 207.124 45.6023C207.124 45.3295 207.021 45.1004 206.817 44.9148C206.616 44.7292 206.307 44.589 205.891 44.4943L204.413 44.1705C203.599 43.9848 202.997 43.6894 202.607 43.2841C202.22 42.8788 202.027 42.3655 202.027 41.7443C202.027 41.2292 202.171 40.7784 202.459 40.392C202.747 40.0057 203.144 39.7045 203.652 39.4886C204.16 39.2689 204.741 39.1591 205.396 39.1591C206.339 39.1591 207.082 39.3636 207.624 39.7727C208.165 40.178 208.523 40.7216 208.697 41.4034ZM214.81 39.2727V40.6364H210.043V39.2727H214.81ZM211.321 37.1818H213.02V45.4375C213.02 45.767 213.069 46.0152 213.168 46.1818C213.266 46.3447 213.393 46.4564 213.548 46.517C213.707 46.5739 213.88 46.6023 214.065 46.6023C214.202 46.6023 214.321 46.5928 214.423 46.5739C214.526 46.5549 214.605 46.5398 214.662 46.5284L214.969 47.9318C214.87 47.9697 214.73 48.0076 214.548 48.0455C214.366 48.0871 214.139 48.1098 213.866 48.1136C213.42 48.1212 213.003 48.0417 212.616 47.875C212.23 47.7083 211.918 47.4508 211.679 47.1023C211.44 46.7538 211.321 46.3163 211.321 45.7898V37.1818ZM219.229 48.1932C218.676 48.1932 218.176 48.0909 217.729 47.8864C217.282 47.678 216.928 47.3769 216.666 46.983C216.409 46.589 216.28 46.1061 216.28 45.5341C216.28 45.0417 216.375 44.6364 216.564 44.3182C216.753 44 217.009 43.7481 217.331 43.5625C217.653 43.3769 218.013 43.2367 218.411 43.142C218.808 43.0473 219.214 42.9754 219.626 42.9261C220.149 42.8655 220.573 42.8163 220.899 42.7784C221.225 42.7367 221.462 42.6705 221.609 42.5795C221.757 42.4886 221.831 42.3409 221.831 42.1364V42.0966C221.831 41.6004 221.691 41.2159 221.411 40.9432C221.134 40.6705 220.721 40.5341 220.172 40.5341C219.6 40.5341 219.149 40.661 218.82 40.9148C218.494 41.1648 218.268 41.4432 218.143 41.75L216.547 41.3864C216.736 40.8561 217.013 40.428 217.376 40.1023C217.744 39.7727 218.166 39.5341 218.643 39.3864C219.121 39.2348 219.623 39.1591 220.149 39.1591C220.498 39.1591 220.867 39.2008 221.257 39.2841C221.651 39.3636 222.018 39.5114 222.359 39.7273C222.704 39.9432 222.986 40.2519 223.206 40.6534C223.426 41.0511 223.536 41.5682 223.536 42.2045V48H221.876V46.8068H221.808C221.698 47.0265 221.534 47.2424 221.314 47.4545C221.094 47.6667 220.812 47.8428 220.467 47.983C220.123 48.1231 219.71 48.1932 219.229 48.1932ZM219.598 46.8295C220.068 46.8295 220.469 46.7367 220.803 46.5511C221.14 46.3655 221.395 46.1231 221.57 45.8239C221.748 45.5208 221.837 45.197 221.837 44.8523V43.7273C221.776 43.7879 221.659 43.8447 221.484 43.8977C221.314 43.947 221.119 43.9905 220.899 44.0284C220.679 44.0625 220.465 44.0947 220.257 44.125C220.049 44.1515 219.875 44.1742 219.734 44.1932C219.405 44.2348 219.104 44.3049 218.831 44.4034C218.562 44.5019 218.346 44.6439 218.183 44.8295C218.024 45.0114 217.945 45.2538 217.945 45.5568C217.945 45.9773 218.1 46.2955 218.411 46.5114C218.721 46.7235 219.117 46.8295 219.598 46.8295ZM232.338 41.4034L230.798 41.6761C230.734 41.4792 230.632 41.2917 230.491 41.1136C230.355 40.9356 230.17 40.7898 229.935 40.6761C229.7 40.5625 229.406 40.5057 229.054 40.5057C228.573 40.5057 228.171 40.6136 227.849 40.8295C227.527 41.0417 227.366 41.3163 227.366 41.6534C227.366 41.9451 227.474 42.1799 227.69 42.358C227.906 42.536 228.255 42.6818 228.736 42.7955L230.122 43.1136C230.925 43.2992 231.524 43.5852 231.918 43.9716C232.312 44.358 232.509 44.8598 232.509 45.4773C232.509 46 232.357 46.4659 232.054 46.875C231.755 47.2803 231.336 47.5985 230.798 47.8295C230.264 48.0606 229.645 48.1761 228.94 48.1761C227.963 48.1761 227.166 47.9678 226.548 47.5511C225.931 47.1307 225.552 46.5341 225.412 45.7614L227.054 45.5114C227.156 45.9394 227.366 46.2633 227.685 46.483C228.003 46.6989 228.418 46.8068 228.929 46.8068C229.486 46.8068 229.931 46.6913 230.264 46.4602C230.598 46.2254 230.764 45.9394 230.764 45.6023C230.764 45.3295 230.662 45.1004 230.457 44.9148C230.257 44.7292 229.948 44.589 229.531 44.4943L228.054 44.1705C227.24 43.9848 226.637 43.6894 226.247 43.2841C225.861 42.8788 225.668 42.3655 225.668 41.7443C225.668 41.2292 225.812 40.7784 226.099 40.392C226.387 40.0057 226.785 39.7045 227.293 39.4886C227.8 39.2689 228.382 39.1591 229.037 39.1591C229.98 39.1591 230.723 39.3636 231.264 39.7727C231.806 40.178 232.164 40.7216 232.338 41.4034ZM241.878 48.1705C241.173 48.1705 240.545 47.9905 239.991 47.6307C239.442 47.267 239.01 46.75 238.696 46.0795C238.385 45.4053 238.23 44.5966 238.23 43.6534C238.23 42.7102 238.387 41.9034 238.702 41.233C239.02 40.5625 239.455 40.0492 240.009 39.6932C240.562 39.3371 241.188 39.1591 241.889 39.1591C242.431 39.1591 242.866 39.25 243.196 39.4318C243.529 39.6098 243.787 39.8182 243.969 40.0568C244.154 40.2955 244.298 40.5057 244.401 40.6875H244.503V36.3636H246.202V48H244.543V46.642H244.401C244.298 46.8277 244.151 47.0398 243.957 47.2784C243.768 47.517 243.507 47.7254 243.173 47.9034C242.84 48.0814 242.408 48.1705 241.878 48.1705ZM242.253 46.7216C242.741 46.7216 243.154 46.5928 243.491 46.3352C243.832 46.0739 244.09 45.7121 244.264 45.25C244.442 44.7879 244.531 44.25 244.531 43.6364C244.531 43.0303 244.444 42.5 244.27 42.0455C244.096 41.5909 243.84 41.2367 243.503 40.983C243.166 40.7292 242.749 40.6023 242.253 40.6023C241.741 40.6023 241.315 40.7348 240.974 41C240.634 41.2652 240.376 41.6269 240.202 42.0852C240.031 42.5436 239.946 43.0606 239.946 43.6364C239.946 44.2197 240.033 44.7443 240.207 45.2102C240.382 45.6761 240.639 46.0455 240.98 46.3182C241.325 46.5871 241.749 46.7216 242.253 46.7216ZM252.388 48.1761C251.528 48.1761 250.787 47.9924 250.166 47.625C249.549 47.2538 249.071 46.733 248.734 46.0625C248.401 45.3883 248.234 44.5985 248.234 43.6932C248.234 42.7992 248.401 42.0114 248.734 41.3295C249.071 40.6477 249.541 40.1155 250.143 39.733C250.75 39.3504 251.458 39.1591 252.268 39.1591C252.761 39.1591 253.238 39.2405 253.7 39.4034C254.162 39.5663 254.577 39.822 254.945 40.1705C255.312 40.5189 255.602 40.9716 255.814 41.5284C256.026 42.0814 256.132 42.7538 256.132 43.5455V44.1477H249.195V42.875H254.467C254.467 42.428 254.376 42.0322 254.195 41.6875C254.013 41.339 253.757 41.0644 253.428 40.8636C253.102 40.6629 252.719 40.5625 252.28 40.5625C251.803 40.5625 251.386 40.6799 251.03 40.9148C250.678 41.1458 250.405 41.4489 250.212 41.8239C250.022 42.1951 249.928 42.5985 249.928 43.0341V44.0284C249.928 44.6117 250.03 45.108 250.234 45.517C250.443 45.9261 250.732 46.2386 251.104 46.4545C251.475 46.6667 251.909 46.7727 252.405 46.7727C252.727 46.7727 253.02 46.7273 253.286 46.6364C253.551 46.5417 253.78 46.4015 253.973 46.2159C254.166 46.0303 254.314 45.8011 254.416 45.5284L256.024 45.8182C255.895 46.2917 255.664 46.7064 255.331 47.0625C255.001 47.4148 254.587 47.6894 254.087 47.8864C253.59 48.0795 253.024 48.1761 252.388 48.1761ZM272.053 40.1477H270.28C270.212 39.7689 270.085 39.4356 269.899 39.1477C269.714 38.8598 269.486 38.6155 269.217 38.4148C268.948 38.214 268.647 38.0625 268.314 37.9602C267.984 37.858 267.634 37.8068 267.263 37.8068C266.592 37.8068 265.992 37.9754 265.462 38.3125C264.935 38.6496 264.518 39.1439 264.212 39.7955C263.909 40.447 263.757 41.2424 263.757 42.1818C263.757 43.1288 263.909 43.928 264.212 44.5795C264.518 45.2311 264.937 45.7235 265.467 46.0568C265.998 46.3902 266.594 46.5568 267.257 46.5568C267.625 46.5568 267.973 46.5076 268.303 46.4091C268.636 46.3068 268.937 46.1572 269.206 45.9602C269.475 45.7633 269.702 45.5227 269.888 45.2386C270.077 44.9508 270.208 44.6212 270.28 44.25L272.053 44.2557C271.958 44.8277 271.774 45.3542 271.501 45.8352C271.232 46.3125 270.886 46.7254 270.462 47.0739C270.041 47.4186 269.56 47.6856 269.018 47.875C268.477 48.0644 267.886 48.1591 267.246 48.1591C266.238 48.1591 265.34 47.9205 264.553 47.4432C263.765 46.9621 263.143 46.2746 262.689 45.3807C262.238 44.4867 262.013 43.4205 262.013 42.1818C262.013 40.9394 262.24 39.8731 262.695 38.983C263.149 38.089 263.77 37.4034 264.558 36.9261C265.346 36.4451 266.242 36.2045 267.246 36.2045C267.863 36.2045 268.439 36.2936 268.973 36.4716C269.511 36.6458 269.994 36.9034 270.422 37.2443C270.85 37.5814 271.204 37.9943 271.484 38.483C271.765 38.9678 271.954 39.5227 272.053 40.1477ZM277.693 48.1761C276.875 48.1761 276.161 47.9886 275.551 47.6136C274.941 47.2386 274.468 46.714 274.131 46.0398C273.794 45.3655 273.625 44.5777 273.625 43.6761C273.625 42.7708 273.794 41.9792 274.131 41.3011C274.468 40.6231 274.941 40.0966 275.551 39.7216C276.161 39.3466 276.875 39.1591 277.693 39.1591C278.511 39.1591 279.225 39.3466 279.835 39.7216C280.445 40.0966 280.919 40.6231 281.256 41.3011C281.593 41.9792 281.761 42.7708 281.761 43.6761C281.761 44.5777 281.593 45.3655 281.256 46.0398C280.919 46.714 280.445 47.2386 279.835 47.6136C279.225 47.9886 278.511 48.1761 277.693 48.1761ZM277.699 46.75C278.229 46.75 278.669 46.6098 279.017 46.3295C279.366 46.0492 279.623 45.6761 279.79 45.2102C279.96 44.7443 280.045 44.2311 280.045 43.6705C280.045 43.1136 279.96 42.6023 279.79 42.1364C279.623 41.6667 279.366 41.2898 279.017 41.0057C278.669 40.7216 278.229 40.5795 277.699 40.5795C277.165 40.5795 276.722 40.7216 276.369 41.0057C276.021 41.2898 275.761 41.6667 275.591 42.1364C275.424 42.6023 275.341 43.1136 275.341 43.6705C275.341 44.2311 275.424 44.7443 275.591 45.2102C275.761 45.6761 276.021 46.0492 276.369 46.3295C276.722 46.6098 277.165 46.75 277.699 46.75ZM283.658 48V39.2727H285.288V40.6932H285.396C285.578 40.2121 285.875 39.8371 286.288 39.5682C286.701 39.2955 287.196 39.1591 287.771 39.1591C288.355 39.1591 288.843 39.2955 289.237 39.5682C289.635 39.8409 289.929 40.2159 290.118 40.6932H290.209C290.417 40.2273 290.749 39.8561 291.203 39.5795C291.658 39.2992 292.199 39.1591 292.828 39.1591C293.62 39.1591 294.266 39.4072 294.766 39.9034C295.269 40.3996 295.521 41.1477 295.521 42.1477V48H293.822V42.3068C293.822 41.7159 293.661 41.2879 293.339 41.0227C293.018 40.7576 292.633 40.625 292.186 40.625C291.633 40.625 291.203 40.7955 290.896 41.1364C290.589 41.4735 290.436 41.9072 290.436 42.4375V48H288.743V42.1989C288.743 41.7254 288.595 41.3447 288.3 41.0568C288.004 40.7689 287.62 40.625 287.146 40.625C286.824 40.625 286.527 40.7102 286.254 40.8807C285.985 41.0473 285.768 41.2803 285.601 41.5795C285.438 41.8788 285.357 42.2254 285.357 42.6193V48H283.658ZM297.798 51.2727V39.2727H299.457V40.6875H299.599C299.698 40.5057 299.84 40.2955 300.026 40.0568C300.211 39.8182 300.469 39.6098 300.798 39.4318C301.128 39.25 301.563 39.1591 302.105 39.1591C302.81 39.1591 303.438 39.3371 303.991 39.6932C304.545 40.0492 304.978 40.5625 305.293 41.233C305.611 41.9034 305.77 42.7102 305.77 43.6534C305.77 44.5966 305.613 45.4053 305.298 46.0795C304.984 46.75 304.552 47.267 304.003 47.6307C303.454 47.9905 302.827 48.1705 302.122 48.1705C301.592 48.1705 301.158 48.0814 300.821 47.9034C300.488 47.7254 300.226 47.517 300.037 47.2784C299.848 47.0398 299.702 46.8277 299.599 46.642H299.497V51.2727H297.798ZM299.463 43.6364C299.463 44.25 299.552 44.7879 299.73 45.25C299.908 45.7121 300.166 46.0739 300.503 46.3352C300.84 46.5928 301.253 46.7216 301.741 46.7216C302.249 46.7216 302.673 46.5871 303.014 46.3182C303.355 46.0455 303.613 45.6761 303.787 45.2102C303.965 44.7443 304.054 44.2197 304.054 43.6364C304.054 43.0606 303.967 42.5436 303.793 42.0852C303.622 41.6269 303.365 41.2652 303.02 41C302.679 40.7348 302.253 40.6023 301.741 40.6023C301.249 40.6023 300.832 40.7292 300.491 40.983C300.154 41.2367 299.899 41.5909 299.724 42.0455C299.55 42.5 299.463 43.0303 299.463 43.6364ZM307.673 48V39.2727H309.315V40.6591H309.406C309.565 40.1894 309.846 39.8201 310.247 39.5511C310.652 39.2784 311.111 39.142 311.622 39.142C311.728 39.142 311.853 39.1458 311.997 39.1534C312.145 39.161 312.26 39.1705 312.344 39.1818V40.8068C312.276 40.7879 312.154 40.767 311.98 40.7443C311.806 40.7178 311.632 40.7045 311.457 40.7045C311.056 40.7045 310.698 40.7898 310.384 40.9602C310.073 41.1269 309.827 41.3598 309.645 41.6591C309.463 41.9545 309.372 42.2917 309.372 42.6705V48H307.673ZM316.276 48.1932C315.723 48.1932 315.223 48.0909 314.776 47.8864C314.329 47.678 313.974 47.3769 313.713 46.983C313.455 46.589 313.327 46.1061 313.327 45.5341C313.327 45.0417 313.421 44.6364 313.611 44.3182C313.8 44 314.056 43.7481 314.378 43.5625C314.7 43.3769 315.06 43.2367 315.457 43.142C315.855 43.0473 316.26 42.9754 316.673 42.9261C317.196 42.8655 317.62 42.8163 317.946 42.7784C318.272 42.7367 318.509 42.6705 318.656 42.5795C318.804 42.4886 318.878 42.3409 318.878 42.1364V42.0966C318.878 41.6004 318.738 41.2159 318.457 40.9432C318.181 40.6705 317.768 40.5341 317.219 40.5341C316.647 40.5341 316.196 40.661 315.866 40.9148C315.541 41.1648 315.315 41.4432 315.19 41.75L313.594 41.3864C313.783 40.8561 314.06 40.428 314.423 40.1023C314.791 39.7727 315.213 39.5341 315.69 39.3864C316.168 39.2348 316.67 39.1591 317.196 39.1591C317.545 39.1591 317.914 39.2008 318.304 39.2841C318.698 39.3636 319.065 39.5114 319.406 39.7273C319.751 39.9432 320.033 40.2519 320.253 40.6534C320.473 41.0511 320.582 41.5682 320.582 42.2045V48H318.923V46.8068H318.855C318.745 47.0265 318.58 47.2424 318.361 47.4545C318.141 47.6667 317.859 47.8428 317.514 47.983C317.17 48.1231 316.757 48.1932 316.276 48.1932ZM316.645 46.8295C317.115 46.8295 317.516 46.7367 317.849 46.5511C318.187 46.3655 318.442 46.1231 318.616 45.8239C318.795 45.5208 318.884 45.197 318.884 44.8523V43.7273C318.823 43.7879 318.705 43.8447 318.531 43.8977C318.361 43.947 318.166 43.9905 317.946 44.0284C317.726 44.0625 317.512 44.0947 317.304 44.125C317.096 44.1515 316.921 44.1742 316.781 44.1932C316.452 44.2348 316.151 44.3049 315.878 44.4034C315.609 44.5019 315.393 44.6439 315.23 44.8295C315.071 45.0114 314.991 45.2538 314.991 45.5568C314.991 45.9773 315.147 46.2955 315.457 46.5114C315.768 46.7235 316.164 46.8295 316.645 46.8295ZM329.385 41.4034L327.845 41.6761C327.781 41.4792 327.679 41.2917 327.538 41.1136C327.402 40.9356 327.216 40.7898 326.982 40.6761C326.747 40.5625 326.453 40.5057 326.101 40.5057C325.62 40.5057 325.218 40.6136 324.896 40.8295C324.574 41.0417 324.413 41.3163 324.413 41.6534C324.413 41.9451 324.521 42.1799 324.737 42.358C324.953 42.536 325.302 42.6818 325.783 42.7955L327.169 43.1136C327.972 43.2992 328.571 43.5852 328.964 43.9716C329.358 44.358 329.555 44.8598 329.555 45.4773C329.555 46 329.404 46.4659 329.101 46.875C328.802 47.2803 328.383 47.5985 327.845 47.8295C327.311 48.0606 326.692 48.1761 325.987 48.1761C325.01 48.1761 324.213 47.9678 323.595 47.5511C322.978 47.1307 322.599 46.5341 322.459 45.7614L324.101 45.5114C324.203 45.9394 324.413 46.2633 324.732 46.483C325.05 46.6989 325.464 46.8068 325.976 46.8068C326.533 46.8068 326.978 46.6913 327.311 46.4602C327.644 46.2254 327.811 45.9394 327.811 45.6023C327.811 45.3295 327.709 45.1004 327.504 44.9148C327.304 44.7292 326.995 44.589 326.578 44.4943L325.101 44.1705C324.286 43.9848 323.684 43.6894 323.294 43.2841C322.908 42.8788 322.714 42.3655 322.714 41.7443C322.714 41.2292 322.858 40.7784 323.146 40.392C323.434 40.0057 323.832 39.7045 324.339 39.4886C324.847 39.2689 325.429 39.1591 326.084 39.1591C327.027 39.1591 327.769 39.3636 328.311 39.7727C328.853 40.178 329.211 40.7216 329.385 41.4034Z" fill="#717171"/>
<path d="M118.034 36.3636V48H116.278V36.3636H118.034ZM122.153 42.8182V48H120.455V39.2727H122.085V40.6932H122.193C122.394 40.2311 122.708 39.8598 123.136 39.5795C123.568 39.2992 124.112 39.1591 124.767 39.1591C125.362 39.1591 125.883 39.2841 126.33 39.5341C126.777 39.7803 127.123 40.1477 127.369 40.6364C127.616 41.125 127.739 41.7292 127.739 42.4489V48H126.04V42.6534C126.04 42.0208 125.875 41.5265 125.545 41.1705C125.216 40.8106 124.763 40.6307 124.188 40.6307C123.794 40.6307 123.443 40.7159 123.136 40.8864C122.833 41.0568 122.593 41.3068 122.415 41.6364C122.241 41.9621 122.153 42.3561 122.153 42.8182ZM130.017 48V39.2727H131.716V48H130.017ZM130.176 38.108L131.506 35.4886H133.295L131.534 38.108H130.176ZM137.678 48.1761C136.833 48.1761 136.106 47.9848 135.496 47.6023C134.89 47.2159 134.424 46.6837 134.098 46.0057C133.772 45.3277 133.609 44.5511 133.609 43.6761C133.609 42.7898 133.776 42.0076 134.109 41.3295C134.443 40.6477 134.912 40.1155 135.518 39.733C136.125 39.3504 136.839 39.1591 137.661 39.1591C138.323 39.1591 138.914 39.2822 139.433 39.5284C139.952 39.7708 140.371 40.1117 140.689 40.5511C141.011 40.9905 141.202 41.5038 141.263 42.0909H139.609C139.518 41.6818 139.31 41.3295 138.984 41.0341C138.662 40.7386 138.231 40.5909 137.689 40.5909C137.215 40.5909 136.801 40.7159 136.445 40.9659C136.092 41.2121 135.818 41.5644 135.621 42.0227C135.424 42.4773 135.325 43.0152 135.325 43.6364C135.325 44.2727 135.422 44.822 135.615 45.2841C135.808 45.7462 136.081 46.1042 136.433 46.358C136.789 46.6117 137.208 46.7386 137.689 46.7386C138.011 46.7386 138.303 46.6799 138.564 46.5625C138.829 46.4413 139.051 46.2689 139.229 46.0455C139.411 45.822 139.537 45.553 139.609 45.2386H141.263C141.202 45.803 141.018 46.3068 140.712 46.75C140.405 47.1932 139.994 47.5417 139.479 47.7955C138.967 48.0492 138.367 48.1761 137.678 48.1761ZM143.08 48V39.2727H144.778V48H143.08ZM143.938 37.9261C143.642 37.9261 143.388 37.8277 143.176 37.6307C142.968 37.4299 142.864 37.1913 142.864 36.9148C142.864 36.6345 142.968 36.3958 143.176 36.1989C143.388 35.9981 143.642 35.8977 143.938 35.8977C144.233 35.8977 144.485 35.9981 144.693 36.1989C144.905 36.3958 145.011 36.6345 145.011 36.9148C145.011 37.1913 144.905 37.4299 144.693 37.6307C144.485 37.8277 144.233 37.9261 143.938 37.9261ZM150.74 48.1761C149.922 48.1761 149.208 47.9886 148.598 47.6136C147.988 47.2386 147.515 46.714 147.178 46.0398C146.84 45.3655 146.672 44.5777 146.672 43.6761C146.672 42.7708 146.84 41.9792 147.178 41.3011C147.515 40.6231 147.988 40.0966 148.598 39.7216C149.208 39.3466 149.922 39.1591 150.74 39.1591C151.558 39.1591 152.272 39.3466 152.882 39.7216C153.492 40.0966 153.965 40.6231 154.303 41.3011C154.64 41.9792 154.808 42.7708 154.808 43.6761C154.808 44.5777 154.64 45.3655 154.303 46.0398C153.965 46.714 153.492 47.2386 152.882 47.6136C152.272 47.9886 151.558 48.1761 150.74 48.1761ZM150.746 46.75C151.276 46.75 151.715 46.6098 152.064 46.3295C152.412 46.0492 152.67 45.6761 152.837 45.2102C153.007 44.7443 153.092 44.2311 153.092 43.6705C153.092 43.1136 153.007 42.6023 152.837 42.1364C152.67 41.6667 152.412 41.2898 152.064 41.0057C151.715 40.7216 151.276 40.5795 150.746 40.5795C150.212 40.5795 149.768 40.7216 149.416 41.0057C149.068 41.2898 148.808 41.6667 148.638 42.1364C148.471 42.6023 148.388 43.1136 148.388 43.6705C148.388 44.2311 148.471 44.7443 148.638 45.2102C148.808 45.6761 149.068 46.0492 149.416 46.3295C149.768 46.6098 150.212 46.75 150.746 46.75Z" fill="#717171"/>
<rect x="1814.25" y="31.5" width="17.5" height="23.375" rx="2" stroke="#00C677" stroke-width="2"/>
<path d="M1819.25 38.375H1826.75" stroke="#00C677" stroke-width="2" stroke-linecap="round"/>
<path d="M1819.25 43.875H1826.75" stroke="#00C677" stroke-width="2" stroke-linecap="round"/>
<path d="M1819.25 49.375H1824.25" stroke="#00C677" stroke-width="2" stroke-linecap="round"/>
<path d="M1846.04 41V31.5455H1849.41C1850.14 31.5455 1850.75 31.6716 1851.23 31.924C1851.72 32.1764 1852.08 32.5257 1852.32 32.9719C1852.56 33.4151 1852.68 33.9276 1852.68 34.5092C1852.68 35.0878 1852.56 35.5972 1852.32 36.0373C1852.08 36.4743 1851.71 36.8144 1851.23 37.0575C1850.74 37.3007 1850.14 37.4222 1849.4 37.4222H1846.85V36.1942H1849.27C1849.74 36.1942 1850.11 36.1281 1850.4 35.9957C1850.69 35.8634 1850.91 35.671 1851.04 35.4187C1851.18 35.1663 1851.25 34.8632 1851.25 34.5092C1851.25 34.1522 1851.18 33.8429 1851.04 33.5813C1850.9 33.3197 1850.69 33.1197 1850.4 32.9812C1850.11 32.8396 1849.73 32.7688 1849.26 32.7688H1847.47V41H1846.04ZM1850.71 36.7344L1853.04 41H1851.42L1849.13 36.7344H1850.71ZM1857.21 42.1818V30.3636H1857.96V42.1818H1857.21ZM1859.57 34.0291C1859.52 33.5921 1859.32 33.2536 1858.96 33.0135C1858.61 32.7704 1858.16 32.6488 1857.62 32.6488C1857.23 32.6488 1856.89 32.7103 1856.61 32.8335C1856.33 32.9535 1856.11 33.1197 1855.95 33.332C1855.8 33.5413 1855.72 33.7798 1855.72 34.0476C1855.72 34.2723 1855.77 34.4661 1855.88 34.6293C1855.98 34.7924 1856.12 34.9293 1856.3 35.0401C1856.47 35.1478 1856.66 35.2386 1856.86 35.3125C1857.06 35.3833 1857.25 35.4418 1857.44 35.4879L1858.36 35.728C1858.66 35.8018 1858.97 35.9019 1859.29 36.0281C1859.6 36.1542 1859.9 36.3204 1860.17 36.5266C1860.44 36.7328 1860.66 36.9883 1860.83 37.293C1860.99 37.5977 1861.08 37.9624 1861.08 38.3871C1861.08 38.9226 1860.94 39.3981 1860.66 39.8136C1860.39 40.229 1859.99 40.5568 1859.47 40.7969C1858.95 41.0369 1858.32 41.157 1857.58 41.157C1856.87 41.157 1856.26 41.0446 1855.74 40.82C1855.23 40.5953 1854.82 40.2768 1854.53 39.8643C1854.24 39.4489 1854.07 38.9564 1854.04 38.3871H1855.47C1855.5 38.7287 1855.61 39.0134 1855.81 39.2411C1856 39.4658 1856.25 39.6335 1856.56 39.7443C1856.87 39.852 1857.2 39.9059 1857.57 39.9059C1857.97 39.9059 1858.33 39.8428 1858.65 39.7166C1858.96 39.5874 1859.21 39.4089 1859.39 39.1811C1859.58 38.9503 1859.67 38.681 1859.67 38.3732C1859.67 38.0932 1859.59 37.8639 1859.43 37.6854C1859.27 37.5069 1859.06 37.3591 1858.78 37.2422C1858.52 37.1252 1858.21 37.0221 1857.88 36.9329L1856.76 36.6282C1856 36.422 1855.4 36.1188 1854.96 35.7188C1854.52 35.3187 1854.3 34.7893 1854.3 34.1307C1854.3 33.5859 1854.45 33.1104 1854.74 32.7042C1855.04 32.2979 1855.44 31.9825 1855.94 31.7578C1856.45 31.5301 1857.02 31.4162 1857.65 31.4162C1858.29 31.4162 1858.85 31.5285 1859.34 31.7532C1859.84 31.9779 1860.22 32.2872 1860.51 32.6811C1860.79 33.072 1860.94 33.5213 1860.95 34.0291H1859.57ZM1869.39 41.157C1868.66 41.1539 1868.03 40.9615 1867.52 40.5799C1867 40.1983 1866.6 39.6428 1866.33 38.9134C1866.06 38.1839 1865.92 37.3053 1865.92 36.2773C1865.92 35.2525 1866.06 34.3769 1866.33 33.6506C1866.61 32.9242 1867 32.3703 1867.52 31.9886C1868.04 31.607 1868.66 31.4162 1869.39 31.4162C1870.11 31.4162 1870.73 31.6085 1871.25 31.9933C1871.76 32.3749 1872.16 32.9289 1872.43 33.6552C1872.71 34.3784 1872.85 35.2525 1872.85 36.2773C1872.85 37.3084 1872.71 38.1886 1872.44 38.918C1872.16 39.6443 1871.77 40.1998 1871.25 40.5845C1870.73 40.9661 1870.11 41.157 1869.39 41.157ZM1869.39 39.9244C1870.03 39.9244 1870.53 39.612 1870.89 38.9872C1871.25 38.3625 1871.43 37.4592 1871.43 36.2773C1871.43 35.4925 1871.35 34.8293 1871.18 34.2876C1871.02 33.7429 1870.78 33.3305 1870.48 33.0504C1870.17 32.7673 1869.81 32.6257 1869.39 32.6257C1868.75 32.6257 1868.25 32.9396 1867.89 33.5675C1867.52 34.1953 1867.34 35.0986 1867.34 36.2773C1867.34 37.0652 1867.42 37.7315 1867.58 38.2763C1867.75 38.8179 1867.98 39.2288 1868.29 39.5089C1868.59 39.7859 1868.96 39.9244 1869.39 39.9244ZM1875.96 39.7074L1875.89 40.2106C1875.84 40.5799 1875.76 40.9646 1875.65 41.3647C1875.55 41.7679 1875.43 42.1418 1875.32 42.4865C1875.2 42.8312 1875.11 43.1051 1875.03 43.3082H1874.06C1874.1 43.1174 1874.15 42.8589 1874.22 42.5327C1874.29 42.2095 1874.36 41.8479 1874.43 41.4478C1874.5 41.0477 1874.55 40.6399 1874.58 40.2244L1874.63 39.7074H1875.96ZM1880.84 41.157C1880.11 41.1539 1879.49 40.9615 1878.97 40.5799C1878.45 40.1983 1878.06 39.6428 1877.78 38.9134C1877.51 38.1839 1877.37 37.3053 1877.37 36.2773C1877.37 35.2525 1877.51 34.3769 1877.78 33.6506C1878.06 32.9242 1878.46 32.3703 1878.97 31.9886C1879.49 31.607 1880.11 31.4162 1880.84 31.4162C1881.56 31.4162 1882.18 31.6085 1882.7 31.9933C1883.22 32.3749 1883.61 32.9289 1883.88 33.6552C1884.16 34.3784 1884.3 35.2525 1884.3 36.2773C1884.3 37.3084 1884.16 38.1886 1883.89 38.918C1883.62 39.6443 1883.22 40.1998 1882.7 40.5845C1882.19 40.9661 1881.56 41.157 1880.84 41.157ZM1880.84 39.9244C1881.48 39.9244 1881.98 39.612 1882.34 38.9872C1882.7 38.3625 1882.88 37.4592 1882.88 36.2773C1882.88 35.4925 1882.8 34.8293 1882.63 34.2876C1882.47 33.7429 1882.23 33.3305 1881.93 33.0504C1881.62 32.7673 1881.26 32.6257 1880.84 32.6257C1880.2 32.6257 1879.7 32.9396 1879.34 33.5675C1878.97 34.1953 1878.79 35.0986 1878.79 36.2773C1878.79 37.0652 1878.87 37.7315 1879.03 38.2763C1879.2 38.8179 1879.43 39.2288 1879.74 39.5089C1880.04 39.7859 1880.41 39.9244 1880.84 39.9244ZM1889.23 41.157C1888.5 41.1539 1887.88 40.9615 1887.36 40.5799C1886.84 40.1983 1886.45 39.6428 1886.17 38.9134C1885.9 38.1839 1885.76 37.3053 1885.76 36.2773C1885.76 35.2525 1885.9 34.3769 1886.17 33.6506C1886.45 32.9242 1886.85 32.3703 1887.36 31.9886C1887.88 31.607 1888.51 31.4162 1889.23 31.4162C1889.95 31.4162 1890.57 31.6085 1891.09 31.9933C1891.61 32.3749 1892 32.9289 1892.28 33.6552C1892.55 34.3784 1892.69 35.2525 1892.69 36.2773C1892.69 37.3084 1892.55 38.1886 1892.28 38.918C1892.01 39.6443 1891.61 40.1998 1891.09 40.5845C1890.58 40.9661 1889.96 41.157 1889.23 41.157ZM1889.23 39.9244C1889.87 39.9244 1890.37 39.612 1890.73 38.9872C1891.09 38.3625 1891.27 37.4592 1891.27 36.2773C1891.27 35.4925 1891.19 34.8293 1891.03 34.2876C1890.86 33.7429 1890.63 33.3305 1890.32 33.0504C1890.01 32.7673 1889.65 32.6257 1889.23 32.6257C1888.59 32.6257 1888.09 32.9396 1887.73 33.5675C1887.37 34.1953 1887.18 35.0986 1887.18 36.2773C1887.18 37.0652 1887.26 37.7315 1887.42 38.2763C1887.59 38.8179 1887.83 39.2288 1888.13 39.5089C1888.44 39.7859 1888.8 39.9244 1889.23 39.9244Z" fill="#717171"/>
<path d="M1847.88 55.1449C1847.2 55.142 1846.63 54.9645 1846.15 54.6122C1845.67 54.2599 1845.31 53.7472 1845.06 53.0739C1844.8 52.4006 1844.68 51.5895 1844.68 50.6406C1844.68 49.6946 1844.8 48.8864 1845.06 48.2159C1845.31 47.5455 1845.68 47.0341 1846.16 46.6818C1846.64 46.3295 1847.21 46.1534 1847.88 46.1534C1848.55 46.1534 1849.12 46.331 1849.6 46.6861C1850.07 47.0384 1850.44 47.5497 1850.69 48.2202C1850.95 48.8878 1851.07 49.6946 1851.07 50.6406C1851.07 51.5923 1850.95 52.4048 1850.69 53.0781C1850.44 53.7486 1850.08 54.2614 1849.6 54.6165C1849.12 54.9688 1848.55 55.1449 1847.88 55.1449ZM1847.88 54.0071C1848.47 54.0071 1848.93 53.7188 1849.26 53.142C1849.6 52.5653 1849.77 51.7315 1849.77 50.6406C1849.77 49.9162 1849.69 49.304 1849.54 48.804C1849.38 48.3011 1849.17 47.9205 1848.88 47.6619C1848.6 47.4006 1848.27 47.2699 1847.88 47.2699C1847.29 47.2699 1846.83 47.5597 1846.49 48.1392C1846.16 48.7187 1845.99 49.5526 1845.99 50.6406C1845.99 51.3679 1846.06 51.983 1846.21 52.4858C1846.37 52.9858 1846.58 53.3651 1846.86 53.6236C1847.14 53.8793 1847.48 54.0071 1847.88 54.0071ZM1857.2 46.2727V55H1855.88V46.2727H1857.2ZM1862.07 48.4545V49.4773H1858.49V48.4545H1862.07ZM1859.45 46.8864H1860.73V53.0781C1860.73 53.3253 1860.76 53.5114 1860.84 53.6364C1860.91 53.7585 1861.01 53.8423 1861.12 53.8878C1861.24 53.9304 1861.37 53.9517 1861.51 53.9517C1861.61 53.9517 1861.7 53.9446 1861.78 53.9304C1861.86 53.9162 1861.91 53.9048 1861.96 53.8963L1862.19 54.9489C1862.11 54.9773 1862.01 55.0057 1861.87 55.0341C1861.74 55.0653 1861.57 55.0824 1861.36 55.0852C1861.03 55.0909 1860.71 55.0312 1860.42 54.9062C1860.13 54.7812 1859.9 54.5881 1859.72 54.3267C1859.54 54.0653 1859.45 53.7372 1859.45 53.3423V46.8864ZM1866.23 55.1321C1865.58 55.1321 1865.03 54.9943 1864.56 54.7188C1864.1 54.4403 1863.74 54.0497 1863.49 53.5469C1863.24 53.0412 1863.11 52.4489 1863.11 51.7699C1863.11 51.0994 1863.24 50.5085 1863.49 49.9972C1863.74 49.4858 1864.09 49.0866 1864.55 48.7997C1865 48.5128 1865.53 48.3693 1866.14 48.3693C1866.51 48.3693 1866.87 48.4304 1867.21 48.5526C1867.56 48.6747 1867.87 48.8665 1868.15 49.1278C1868.42 49.3892 1868.64 49.7287 1868.8 50.1463C1868.96 50.5611 1869.04 51.0653 1869.04 51.6591V52.1108H1863.83V51.1562H1867.79C1867.79 50.821 1867.72 50.5241 1867.58 50.2656C1867.45 50.0043 1867.26 49.7983 1867.01 49.6477C1866.76 49.4972 1866.48 49.4219 1866.15 49.4219C1865.79 49.4219 1865.48 49.5099 1865.21 49.6861C1864.95 49.8594 1864.74 50.0866 1864.6 50.3679C1864.45 50.6463 1864.38 50.9489 1864.38 51.2756V52.0213C1864.38 52.4588 1864.46 52.831 1864.61 53.1378C1864.77 53.4446 1864.99 53.679 1865.27 53.8409C1865.54 54 1865.87 54.0795 1866.24 54.0795C1866.48 54.0795 1866.7 54.0455 1866.9 53.9773C1867.1 53.9062 1867.27 53.8011 1867.42 53.6619C1867.56 53.5227 1867.67 53.3509 1867.75 53.1463L1868.96 53.3636C1868.86 53.7187 1868.69 54.0298 1868.44 54.2969C1868.19 54.5611 1867.88 54.767 1867.5 54.9148C1867.13 55.0597 1866.71 55.1321 1866.23 55.1321ZM1871.72 51.1136V55H1870.45V48.4545H1871.67V49.5199H1871.75C1871.9 49.1733 1872.14 48.8949 1872.46 48.6847C1872.79 48.4744 1873.19 48.3693 1873.68 48.3693C1874.13 48.3693 1874.52 48.4631 1874.86 48.6506C1875.19 48.8352 1875.45 49.1108 1875.64 49.4773C1875.82 49.8437 1875.91 50.2969 1875.91 50.8366V55H1874.64V50.9901C1874.64 50.5156 1874.52 50.1449 1874.27 49.8778C1874.02 49.608 1873.68 49.473 1873.25 49.473C1872.95 49.473 1872.69 49.5369 1872.46 49.6648C1872.23 49.7926 1872.05 49.9801 1871.92 50.2273C1871.79 50.4716 1871.72 50.767 1871.72 51.1136ZM1882.53 50.0526L1881.37 50.2571C1881.32 50.1094 1881.25 49.9687 1881.14 49.8352C1881.04 49.7017 1880.9 49.5923 1880.72 49.5071C1880.55 49.4219 1880.33 49.3793 1880.06 49.3793C1879.7 49.3793 1879.4 49.4602 1879.16 49.6222C1878.92 49.7812 1878.8 49.9872 1878.8 50.2401C1878.8 50.4588 1878.88 50.6349 1879.04 50.7685C1879.2 50.902 1879.46 51.0114 1879.83 51.0966L1880.87 51.3352C1881.47 51.4744 1881.92 51.6889 1882.21 51.9787C1882.51 52.2685 1882.65 52.6449 1882.65 53.108C1882.65 53.5 1882.54 53.8494 1882.31 54.1562C1882.09 54.4602 1881.78 54.6989 1881.37 54.8722C1880.97 55.0455 1880.51 55.1321 1879.98 55.1321C1879.25 55.1321 1878.65 54.9759 1878.18 54.6634C1877.72 54.348 1877.44 53.9006 1877.33 53.321L1878.56 53.1335C1878.64 53.4545 1878.8 53.6974 1879.04 53.8622C1879.28 54.0241 1879.59 54.1051 1879.97 54.1051C1880.39 54.1051 1880.72 54.0185 1880.97 53.8452C1881.22 53.669 1881.35 53.4545 1881.35 53.2017C1881.35 52.9972 1881.27 52.8253 1881.12 52.6861C1880.97 52.5469 1880.73 52.4418 1880.42 52.3707L1879.31 52.1278C1878.7 51.9886 1878.25 51.767 1877.96 51.4631C1877.67 51.1591 1877.52 50.7741 1877.52 50.3082C1877.52 49.9219 1877.63 49.5838 1877.85 49.294C1878.06 49.0043 1878.36 48.7784 1878.74 48.6165C1879.12 48.4517 1879.56 48.3693 1880.05 48.3693C1880.76 48.3693 1881.32 48.5227 1881.72 48.8295C1882.13 49.1335 1882.4 49.5412 1882.53 50.0526Z" fill="#717171"/>
<path d="M1780.84 54.1147C1780.29 52.3605 1779.07 50.8104 1777.38 49.7048C1775.7 48.5993 1773.63 48 1771.5 48C1769.37 48 1767.3 48.5993 1765.61 49.7048C1763.93 50.8104 1762.71 52.3605 1762.16 54.1147" stroke="#00C677" stroke-width="2" stroke-linecap="round"/>
<ellipse cx="1771.5" cy="37" rx="4.83333" ry="5.5" stroke="#00C677" stroke-width="2" stroke-linecap="round"/>
<path d="M1432.62 40.4205C1432.56 39.8826 1432.31 39.4659 1431.88 39.1705C1431.44 38.8712 1430.88 38.7216 1430.22 38.7216C1429.74 38.7216 1429.33 38.7973 1428.98 38.9489C1428.63 39.0966 1428.36 39.3011 1428.16 39.5625C1427.98 39.8201 1427.88 40.1136 1427.88 40.4432C1427.88 40.7197 1427.95 40.9583 1428.07 41.1591C1428.21 41.3598 1428.38 41.5284 1428.59 41.6648C1428.81 41.7973 1429.04 41.9091 1429.28 42C1429.53 42.0871 1429.77 42.1591 1429.99 42.2159L1431.13 42.5114C1431.5 42.6023 1431.88 42.7254 1432.27 42.8807C1432.66 43.036 1433.02 43.2405 1433.36 43.4943C1433.69 43.7481 1433.96 44.0625 1434.16 44.4375C1434.37 44.8125 1434.48 45.2614 1434.48 45.7841C1434.48 46.4432 1434.31 47.0284 1433.97 47.5398C1433.63 48.0511 1433.14 48.4545 1432.49 48.75C1431.85 49.0455 1431.08 49.1932 1430.17 49.1932C1429.3 49.1932 1428.55 49.0549 1427.91 48.7784C1427.27 48.5019 1426.77 48.1098 1426.41 47.6023C1426.05 47.0909 1425.86 46.4848 1425.82 45.7841H1427.58C1427.61 46.2045 1427.75 46.5549 1427.99 46.8352C1428.23 47.1117 1428.54 47.3182 1428.91 47.4545C1429.29 47.5871 1429.71 47.6534 1430.16 47.6534C1430.66 47.6534 1431.1 47.5758 1431.48 47.4205C1431.87 47.2614 1432.18 47.0417 1432.4 46.7614C1432.63 46.4773 1432.74 46.1458 1432.74 45.767C1432.74 45.4223 1432.64 45.1402 1432.44 44.9205C1432.25 44.7008 1431.99 44.5189 1431.65 44.375C1431.32 44.2311 1430.95 44.1042 1430.53 43.9943L1429.16 43.6193C1428.23 43.3655 1427.49 42.9924 1426.94 42.5C1426.4 42.0076 1426.13 41.3561 1426.13 40.5455C1426.13 39.875 1426.31 39.2898 1426.68 38.7898C1427.04 38.2898 1427.53 37.9015 1428.15 37.625C1428.77 37.3447 1429.48 37.2045 1430.26 37.2045C1431.04 37.2045 1431.74 37.3428 1432.34 37.6193C1432.95 37.8958 1433.42 38.2765 1433.77 38.7614C1434.12 39.2424 1434.3 39.7955 1434.32 40.4205H1432.62ZM1440.2 49.1761C1439.34 49.1761 1438.6 48.9924 1437.98 48.625C1437.36 48.2538 1436.88 47.733 1436.55 47.0625C1436.21 46.3883 1436.05 45.5985 1436.05 44.6932C1436.05 43.7992 1436.21 43.0114 1436.55 42.3295C1436.88 41.6477 1437.35 41.1155 1437.96 40.733C1438.56 40.3504 1439.27 40.1591 1440.08 40.1591C1440.57 40.1591 1441.05 40.2405 1441.51 40.4034C1441.97 40.5663 1442.39 40.822 1442.76 41.1705C1443.12 41.5189 1443.41 41.9716 1443.63 42.5284C1443.84 43.0814 1443.94 43.7538 1443.94 44.5455V45.1477H1437.01V43.875H1442.28C1442.28 43.428 1442.19 43.0322 1442.01 42.6875C1441.83 42.339 1441.57 42.0644 1441.24 41.8636C1440.91 41.6629 1440.53 41.5625 1440.09 41.5625C1439.62 41.5625 1439.2 41.6799 1438.84 41.9148C1438.49 42.1458 1438.22 42.4489 1438.02 42.8239C1437.83 43.1951 1437.74 43.5985 1437.74 44.0341V45.0284C1437.74 45.6117 1437.84 46.108 1438.05 46.517C1438.26 46.9261 1438.54 47.2386 1438.92 47.4545C1439.29 47.6667 1439.72 47.7727 1440.22 47.7727C1440.54 47.7727 1440.83 47.7273 1441.1 47.6364C1441.36 47.5417 1441.59 47.4015 1441.79 47.2159C1441.98 47.0303 1442.13 46.8011 1442.23 46.5284L1443.84 46.8182C1443.71 47.2917 1443.48 47.7064 1443.14 48.0625C1442.81 48.4148 1442.4 48.6894 1441.9 48.8864C1441.4 49.0795 1440.84 49.1761 1440.2 49.1761ZM1445.83 49V40.2727H1447.47V41.6591H1447.56C1447.72 41.1894 1448 40.8201 1448.4 40.5511C1448.81 40.2784 1449.27 40.142 1449.78 40.142C1449.88 40.142 1450.01 40.1458 1450.15 40.1534C1450.3 40.161 1450.42 40.1705 1450.5 40.1818V41.8068C1450.43 41.7879 1450.31 41.767 1450.14 41.7443C1449.96 41.7178 1449.79 41.7045 1449.61 41.7045C1449.21 41.7045 1448.85 41.7898 1448.54 41.9602C1448.23 42.1269 1447.98 42.3598 1447.8 42.6591C1447.62 42.9545 1447.53 43.2917 1447.53 43.6705V49H1445.83ZM1459.7 40.2727L1456.54 49H1454.72L1451.55 40.2727H1453.37L1455.58 46.9886H1455.67L1457.88 40.2727H1459.7ZM1461.3 49V40.2727H1463V49H1461.3ZM1462.16 38.9261C1461.86 38.9261 1461.61 38.8277 1461.39 38.6307C1461.19 38.4299 1461.08 38.1913 1461.08 37.9148C1461.08 37.6345 1461.19 37.3958 1461.39 37.1989C1461.61 36.9981 1461.86 36.8977 1462.16 36.8977C1462.45 36.8977 1462.7 36.9981 1462.91 37.1989C1463.12 37.3958 1463.23 37.6345 1463.23 37.9148C1463.23 38.1913 1463.12 38.4299 1462.91 38.6307C1462.7 38.8277 1462.45 38.9261 1462.16 38.9261ZM1468.55 49.1705C1467.85 49.1705 1467.22 48.9905 1466.66 48.6307C1466.11 48.267 1465.68 47.75 1465.37 47.0795C1465.06 46.4053 1464.9 45.5966 1464.9 44.6534C1464.9 43.7102 1465.06 42.9034 1465.37 42.233C1465.69 41.5625 1466.13 41.0492 1466.68 40.6932C1467.23 40.3371 1467.86 40.1591 1468.56 40.1591C1469.1 40.1591 1469.54 40.25 1469.87 40.4318C1470.2 40.6098 1470.46 40.8182 1470.64 41.0568C1470.83 41.2955 1470.97 41.5057 1471.07 41.6875H1471.17V37.3636H1472.87V49H1471.21V47.642H1471.07C1470.97 47.8277 1470.82 48.0398 1470.63 48.2784C1470.44 48.517 1470.18 48.7254 1469.85 48.9034C1469.51 49.0814 1469.08 49.1705 1468.55 49.1705ZM1468.92 47.7216C1469.41 47.7216 1469.83 47.5928 1470.16 47.3352C1470.5 47.0739 1470.76 46.7121 1470.94 46.25C1471.11 45.7879 1471.2 45.25 1471.2 44.6364C1471.2 44.0303 1471.12 43.5 1470.94 43.0455C1470.77 42.5909 1470.51 42.2367 1470.17 41.983C1469.84 41.7292 1469.42 41.6023 1468.92 41.6023C1468.41 41.6023 1467.99 41.7348 1467.65 42C1467.31 42.2652 1467.05 42.6269 1466.87 43.0852C1466.7 43.5436 1466.62 44.0606 1466.62 44.6364C1466.62 45.2197 1466.71 45.7443 1466.88 46.2102C1467.05 46.6761 1467.31 47.0455 1467.65 47.3182C1468 47.5871 1468.42 47.7216 1468.92 47.7216ZM1477.84 49.1932C1477.29 49.1932 1476.79 49.0909 1476.34 48.8864C1475.89 48.678 1475.54 48.3769 1475.28 47.983C1475.02 47.589 1474.89 47.1061 1474.89 46.5341C1474.89 46.0417 1474.98 45.6364 1475.17 45.3182C1475.36 45 1475.62 44.7481 1475.94 44.5625C1476.26 44.3769 1476.62 44.2367 1477.02 44.142C1477.42 44.0473 1477.82 43.9754 1478.24 43.9261C1478.76 43.8655 1479.18 43.8163 1479.51 43.7784C1479.83 43.7367 1480.07 43.6705 1480.22 43.5795C1480.37 43.4886 1480.44 43.3409 1480.44 43.1364V43.0966C1480.44 42.6004 1480.3 42.2159 1480.02 41.9432C1479.74 41.6705 1479.33 41.5341 1478.78 41.5341C1478.21 41.5341 1477.76 41.661 1477.43 41.9148C1477.1 42.1648 1476.88 42.4432 1476.75 42.75L1475.16 42.3864C1475.35 41.8561 1475.62 41.428 1475.99 41.1023C1476.35 40.7727 1476.78 40.5341 1477.25 40.3864C1477.73 40.2348 1478.23 40.1591 1478.76 40.1591C1479.11 40.1591 1479.48 40.2008 1479.87 40.2841C1480.26 40.3636 1480.63 40.5114 1480.97 40.7273C1481.31 40.9432 1481.6 41.2519 1481.82 41.6534C1482.04 42.0511 1482.14 42.5682 1482.14 43.2045V49H1480.49V47.8068H1480.42C1480.31 48.0265 1480.14 48.2424 1479.92 48.4545C1479.7 48.6667 1479.42 48.8428 1479.08 48.983C1478.73 49.1231 1478.32 49.1932 1477.84 49.1932ZM1478.21 47.8295C1478.68 47.8295 1479.08 47.7367 1479.41 47.5511C1479.75 47.3655 1480 47.1231 1480.18 46.8239C1480.36 46.5208 1480.45 46.197 1480.45 45.8523V44.7273C1480.39 44.7879 1480.27 44.8447 1480.09 44.8977C1479.92 44.947 1479.73 44.9905 1479.51 45.0284C1479.29 45.0625 1479.07 45.0947 1478.87 45.125C1478.66 45.1515 1478.48 45.1742 1478.34 45.1932C1478.01 45.2348 1477.71 45.3049 1477.44 45.4034C1477.17 45.5019 1476.96 45.6439 1476.79 45.8295C1476.63 46.0114 1476.55 46.2538 1476.55 46.5568C1476.55 46.9773 1476.71 47.2955 1477.02 47.5114C1477.33 47.7235 1477.73 47.8295 1478.21 47.8295ZM1477.14 39.2159L1476 39.1818C1476 38.553 1476.17 38.0511 1476.5 37.6761C1476.84 37.3011 1477.26 37.1136 1477.76 37.1136C1478 37.1136 1478.2 37.1534 1478.37 37.233C1478.55 37.3087 1478.71 37.3977 1478.86 37.5C1479.02 37.5985 1479.17 37.6875 1479.32 37.767C1479.48 37.8428 1479.65 37.8807 1479.84 37.8807C1480.06 37.8807 1480.24 37.7973 1480.37 37.6307C1480.51 37.464 1480.58 37.2576 1480.58 37.0114L1481.7 37.0852C1481.7 37.7178 1481.53 38.2159 1481.19 38.5795C1480.85 38.9394 1480.43 39.1212 1479.93 39.125C1479.67 39.125 1479.44 39.0871 1479.26 39.0114C1479.09 38.9318 1478.93 38.8428 1478.8 38.7443C1478.66 38.642 1478.52 38.5511 1478.38 38.4716C1478.23 38.392 1478.06 38.3523 1477.86 38.3523C1477.65 38.3523 1477.47 38.4356 1477.34 38.6023C1477.21 38.7652 1477.14 38.9697 1477.14 39.2159ZM1488.08 49.1761C1487.27 49.1761 1486.55 48.9886 1485.94 48.6136C1485.33 48.2386 1484.86 47.714 1484.52 47.0398C1484.18 46.3655 1484.02 45.5777 1484.02 44.6761C1484.02 43.7708 1484.18 42.9792 1484.52 42.3011C1484.86 41.6231 1485.33 41.0966 1485.94 40.7216C1486.55 40.3466 1487.27 40.1591 1488.08 40.1591C1488.9 40.1591 1489.62 40.3466 1490.23 40.7216C1490.84 41.0966 1491.31 41.6231 1491.65 42.3011C1491.98 42.9792 1492.15 43.7708 1492.15 44.6761C1492.15 45.5777 1491.98 46.3655 1491.65 47.0398C1491.31 47.714 1490.84 48.2386 1490.23 48.6136C1489.62 48.9886 1488.9 49.1761 1488.08 49.1761ZM1488.09 47.75C1488.62 47.75 1489.06 47.6098 1489.41 47.3295C1489.76 47.0492 1490.01 46.6761 1490.18 46.2102C1490.35 45.7443 1490.44 45.2311 1490.44 44.6705C1490.44 44.1136 1490.35 43.6023 1490.18 43.1364C1490.01 42.6667 1489.76 42.2898 1489.41 42.0057C1489.06 41.7216 1488.62 41.5795 1488.09 41.5795C1487.56 41.5795 1487.11 41.7216 1486.76 42.0057C1486.41 42.2898 1486.15 42.6667 1485.98 43.1364C1485.81 43.6023 1485.73 44.1136 1485.73 44.6705C1485.73 45.2311 1485.81 45.7443 1485.98 46.2102C1486.15 46.6761 1486.41 47.0492 1486.76 47.3295C1487.11 47.6098 1487.56 47.75 1488.09 47.75ZM1507.81 37.3636V49H1506.2L1500.28 40.4659H1500.17V49H1498.42V37.3636H1500.04L1505.96 45.9091H1506.07V37.3636H1507.81ZM1513.91 49.1761C1513.09 49.1761 1512.38 48.9886 1511.77 48.6136C1511.16 48.2386 1510.69 47.714 1510.35 47.0398C1510.01 46.3655 1509.84 45.5777 1509.84 44.6761C1509.84 43.7708 1510.01 42.9792 1510.35 42.3011C1510.69 41.6231 1511.16 41.0966 1511.77 40.7216C1512.38 40.3466 1513.09 40.1591 1513.91 40.1591C1514.73 40.1591 1515.44 40.3466 1516.05 40.7216C1516.66 41.0966 1517.14 41.6231 1517.47 42.3011C1517.81 42.9792 1517.98 43.7708 1517.98 44.6761C1517.98 45.5777 1517.81 46.3655 1517.47 47.0398C1517.14 47.714 1516.66 48.2386 1516.05 48.6136C1515.44 48.9886 1514.73 49.1761 1513.91 49.1761ZM1513.92 47.75C1514.45 47.75 1514.89 47.6098 1515.24 47.3295C1515.58 47.0492 1515.84 46.6761 1516.01 46.2102C1516.18 45.7443 1516.26 45.2311 1516.26 44.6705C1516.26 44.1136 1516.18 43.6023 1516.01 43.1364C1515.84 42.6667 1515.58 42.2898 1515.24 42.0057C1514.89 41.7216 1514.45 41.5795 1513.92 41.5795C1513.38 41.5795 1512.94 41.7216 1512.59 42.0057C1512.24 42.2898 1511.98 42.6667 1511.81 43.1364C1511.64 43.6023 1511.56 44.1136 1511.56 44.6705C1511.56 45.2311 1511.64 45.7443 1511.81 46.2102C1511.98 46.6761 1512.24 47.0492 1512.59 47.3295C1512.94 47.6098 1513.38 47.75 1513.92 47.75ZM1526.42 42.4034L1524.88 42.6761C1524.81 42.4792 1524.71 42.2917 1524.57 42.1136C1524.43 41.9356 1524.25 41.7898 1524.01 41.6761C1523.78 41.5625 1523.48 41.5057 1523.13 41.5057C1522.65 41.5057 1522.25 41.6136 1521.93 41.8295C1521.61 42.0417 1521.44 42.3163 1521.44 42.6534C1521.44 42.9451 1521.55 43.1799 1521.77 43.358C1521.98 43.536 1522.33 43.6818 1522.81 43.7955L1524.2 44.1136C1525 44.2992 1525.6 44.5852 1526 44.9716C1526.39 45.358 1526.59 45.8598 1526.59 46.4773C1526.59 47 1526.44 47.4659 1526.13 47.875C1525.83 48.2803 1525.41 48.5985 1524.88 48.8295C1524.34 49.0606 1523.72 49.1761 1523.02 49.1761C1522.04 49.1761 1521.24 48.9678 1520.63 48.5511C1520.01 48.1307 1519.63 47.5341 1519.49 46.7614L1521.13 46.5114C1521.23 46.9394 1521.44 47.2633 1521.76 47.483C1522.08 47.6989 1522.5 47.8068 1523.01 47.8068C1523.56 47.8068 1524.01 47.6913 1524.34 47.4602C1524.68 47.2254 1524.84 46.9394 1524.84 46.6023C1524.84 46.3295 1524.74 46.1004 1524.54 45.9148C1524.33 45.7292 1524.03 45.589 1523.61 45.4943L1522.13 45.1705C1521.32 44.9848 1520.72 44.6894 1520.33 44.2841C1519.94 43.8788 1519.75 43.3655 1519.75 42.7443C1519.75 42.2292 1519.89 41.7784 1520.18 41.392C1520.47 41.0057 1520.86 40.7045 1521.37 40.4886C1521.88 40.2689 1522.46 40.1591 1523.12 40.1591C1524.06 40.1591 1524.8 40.3636 1525.34 40.7727C1525.88 41.178 1526.24 41.7216 1526.42 42.4034ZM1534.99 42.4034L1533.45 42.6761C1533.39 42.4792 1533.29 42.2917 1533.15 42.1136C1533.01 41.9356 1532.83 41.7898 1532.59 41.6761C1532.36 41.5625 1532.06 41.5057 1531.71 41.5057C1531.23 41.5057 1530.83 41.6136 1530.51 41.8295C1530.18 42.0417 1530.02 42.3163 1530.02 42.6534C1530.02 42.9451 1530.13 43.1799 1530.35 43.358C1530.56 43.536 1530.91 43.6818 1531.39 43.7955L1532.78 44.1136C1533.58 44.2992 1534.18 44.5852 1534.57 44.9716C1534.97 45.358 1535.16 45.8598 1535.16 46.4773C1535.16 47 1535.01 47.4659 1534.71 47.875C1534.41 48.2803 1533.99 48.5985 1533.45 48.8295C1532.92 49.0606 1532.3 49.1761 1531.6 49.1761C1530.62 49.1761 1529.82 48.9678 1529.2 48.5511C1528.59 48.1307 1528.21 47.5341 1528.07 46.7614L1529.71 46.5114C1529.81 46.9394 1530.02 47.2633 1530.34 47.483C1530.66 47.6989 1531.07 47.8068 1531.59 47.8068C1532.14 47.8068 1532.59 47.6913 1532.92 47.4602C1533.25 47.2254 1533.42 46.9394 1533.42 46.6023C1533.42 46.3295 1533.32 46.1004 1533.11 45.9148C1532.91 45.7292 1532.6 45.589 1532.19 45.4943L1530.71 45.1705C1529.9 44.9848 1529.29 44.6894 1528.9 44.2841C1528.52 43.8788 1528.32 43.3655 1528.32 42.7443C1528.32 42.2292 1528.47 41.7784 1528.76 41.392C1529.04 41.0057 1529.44 40.7045 1529.95 40.4886C1530.46 40.2689 1531.04 40.1591 1531.69 40.1591C1532.64 40.1591 1533.38 40.3636 1533.92 40.7727C1534.46 41.178 1534.82 41.7216 1534.99 42.4034ZM1539.57 49.1932C1539.02 49.1932 1538.52 49.0909 1538.07 48.8864C1537.63 48.678 1537.27 48.3769 1537.01 47.983C1536.75 47.589 1536.62 47.1061 1536.62 46.5341C1536.62 46.0417 1536.72 45.6364 1536.91 45.3182C1537.1 45 1537.35 44.7481 1537.67 44.5625C1538 44.3769 1538.36 44.2367 1538.75 44.142C1539.15 44.0473 1539.56 43.9754 1539.97 43.9261C1540.49 43.8655 1540.92 43.8163 1541.24 43.7784C1541.57 43.7367 1541.81 43.6705 1541.95 43.5795C1542.1 43.4886 1542.17 43.3409 1542.17 43.1364V43.0966C1542.17 42.6004 1542.03 42.2159 1541.75 41.9432C1541.48 41.6705 1541.06 41.5341 1540.52 41.5341C1539.94 41.5341 1539.49 41.661 1539.16 41.9148C1538.84 42.1648 1538.61 42.4432 1538.49 42.75L1536.89 42.3864C1537.08 41.8561 1537.36 41.428 1537.72 41.1023C1538.09 40.7727 1538.51 40.5341 1538.99 40.3864C1539.46 40.2348 1539.97 40.1591 1540.49 40.1591C1540.84 40.1591 1541.21 40.2008 1541.6 40.2841C1541.99 40.3636 1542.36 40.5114 1542.7 40.7273C1543.05 40.9432 1543.33 41.2519 1543.55 41.6534C1543.77 42.0511 1543.88 42.5682 1543.88 43.2045V49H1542.22V47.8068H1542.15C1542.04 48.0265 1541.88 48.2424 1541.66 48.4545C1541.44 48.6667 1541.16 48.8428 1540.81 48.983C1540.47 49.1231 1540.05 49.1932 1539.57 49.1932ZM1539.94 47.8295C1540.41 47.8295 1540.81 47.7367 1541.15 47.5511C1541.48 47.3655 1541.74 47.1231 1541.91 46.8239C1542.09 46.5208 1542.18 46.197 1542.18 45.8523V44.7273C1542.12 44.7879 1542 44.8447 1541.83 44.8977C1541.66 44.947 1541.46 44.9905 1541.24 45.0284C1541.02 45.0625 1540.81 45.0947 1540.6 45.125C1540.39 45.1515 1540.22 45.1742 1540.08 45.1932C1539.75 45.2348 1539.45 45.3049 1539.17 45.4034C1538.91 45.5019 1538.69 45.6439 1538.53 45.8295C1538.37 46.0114 1538.29 46.2538 1538.29 46.5568C1538.29 46.9773 1538.44 47.2955 1538.75 47.5114C1539.06 47.7235 1539.46 47.8295 1539.94 47.8295ZM1556.86 40.4205C1556.8 39.8826 1556.55 39.4659 1556.11 39.1705C1555.67 38.8712 1555.12 38.7216 1554.45 38.7216C1553.97 38.7216 1553.56 38.7973 1553.21 38.9489C1552.86 39.0966 1552.59 39.3011 1552.4 39.5625C1552.21 39.8201 1552.12 40.1136 1552.12 40.4432C1552.12 40.7197 1552.18 40.9583 1552.31 41.1591C1552.44 41.3598 1552.61 41.5284 1552.83 41.6648C1553.04 41.7973 1553.27 41.9091 1553.52 42C1553.76 42.0871 1554 42.1591 1554.23 42.2159L1555.37 42.5114C1555.74 42.6023 1556.12 42.7254 1556.51 42.8807C1556.9 43.036 1557.26 43.2405 1557.59 43.4943C1557.93 43.7481 1558.19 44.0625 1558.4 44.4375C1558.61 44.8125 1558.71 45.2614 1558.71 45.7841C1558.71 46.4432 1558.54 47.0284 1558.2 47.5398C1557.86 48.0511 1557.37 48.4545 1556.73 48.75C1556.09 49.0455 1555.31 49.1932 1554.4 49.1932C1553.53 49.1932 1552.78 49.0549 1552.14 48.7784C1551.51 48.5019 1551.01 48.1098 1550.65 47.6023C1550.29 47.0909 1550.09 46.4848 1550.05 45.7841H1551.81C1551.85 46.2045 1551.98 46.5549 1552.22 46.8352C1552.47 47.1117 1552.77 47.3182 1553.15 47.4545C1553.53 47.5871 1553.94 47.6534 1554.39 47.6534C1554.89 47.6534 1555.33 47.5758 1555.72 47.4205C1556.11 47.2614 1556.41 47.0417 1556.64 46.7614C1556.86 46.4773 1556.97 46.1458 1556.97 45.767C1556.97 45.4223 1556.87 45.1402 1556.68 44.9205C1556.48 44.7008 1556.22 44.5189 1555.89 44.375C1555.56 44.2311 1555.19 44.1042 1554.77 43.9943L1553.39 43.6193C1552.46 43.3655 1551.72 42.9924 1551.18 42.5C1550.64 42.0076 1550.37 41.3561 1550.37 40.5455C1550.37 39.875 1550.55 39.2898 1550.91 38.7898C1551.27 38.2898 1551.77 37.9015 1552.39 37.625C1553.01 37.3447 1553.71 37.2045 1554.49 37.2045C1555.28 37.2045 1555.97 37.3428 1556.58 37.6193C1557.18 37.8958 1557.66 38.2765 1558.01 38.7614C1558.36 39.2424 1558.54 39.7955 1558.55 40.4205H1556.86ZM1560.67 49V40.2727H1562.32V41.6591H1562.41C1562.57 41.1894 1562.85 40.8201 1563.25 40.5511C1563.65 40.2784 1564.11 40.142 1564.62 40.142C1564.73 40.142 1564.85 40.1458 1565 40.1534C1565.14 40.161 1565.26 40.1705 1565.34 40.1818V41.8068C1565.28 41.7879 1565.15 41.767 1564.98 41.7443C1564.81 41.7178 1564.63 41.7045 1564.46 41.7045C1564.06 41.7045 1563.7 41.7898 1563.38 41.9602C1563.07 42.1269 1562.83 42.3598 1562.64 42.6591C1562.46 42.9545 1562.37 43.2917 1562.37 43.6705V49H1560.67ZM1566.93 49.108C1566.62 49.108 1566.36 48.9981 1566.13 48.7784C1565.91 48.5549 1565.8 48.286 1565.8 47.9716C1565.8 47.661 1565.91 47.3958 1566.13 47.1761C1566.36 46.9527 1566.62 46.8409 1566.93 46.8409C1567.24 46.8409 1567.51 46.9527 1567.73 47.1761C1567.96 47.3958 1568.07 47.661 1568.07 47.9716C1568.07 48.1799 1568.02 48.3712 1567.91 48.5455C1567.81 48.7159 1567.67 48.8523 1567.5 48.9545C1567.33 49.0568 1567.14 49.108 1566.93 49.108ZM1575.51 49H1573.65L1577.84 37.3636H1579.86L1584.05 49H1582.19L1578.9 39.4773H1578.81L1575.51 49ZM1575.82 44.4432H1581.87V45.9205H1575.82V44.4432ZM1585.6 52.2727V40.2727H1587.25V41.6875H1587.4C1587.49 41.5057 1587.64 41.2955 1587.82 41.0568C1588.01 40.8182 1588.27 40.6098 1588.6 40.4318C1588.92 40.25 1589.36 40.1591 1589.9 40.1591C1590.61 40.1591 1591.24 40.3371 1591.79 40.6932C1592.34 41.0492 1592.78 41.5625 1593.09 42.233C1593.41 42.9034 1593.57 43.7102 1593.57 44.6534C1593.57 45.5966 1593.41 46.4053 1593.1 47.0795C1592.78 47.75 1592.35 48.267 1591.8 48.6307C1591.25 48.9905 1590.62 49.1705 1589.92 49.1705C1589.39 49.1705 1588.96 49.0814 1588.62 48.9034C1588.28 48.7254 1588.02 48.517 1587.83 48.2784C1587.64 48.0398 1587.5 47.8277 1587.4 47.642H1587.29V52.2727H1585.6ZM1587.26 44.6364C1587.26 45.25 1587.35 45.7879 1587.53 46.25C1587.71 46.7121 1587.96 47.0739 1588.3 47.3352C1588.64 47.5928 1589.05 47.7216 1589.54 47.7216C1590.05 47.7216 1590.47 47.5871 1590.81 47.3182C1591.15 47.0455 1591.41 46.6761 1591.58 46.2102C1591.76 45.7443 1591.85 45.2197 1591.85 44.6364C1591.85 44.0606 1591.76 43.5436 1591.59 43.0852C1591.42 42.6269 1591.16 42.2652 1590.82 42C1590.48 41.7348 1590.05 41.6023 1589.54 41.6023C1589.05 41.6023 1588.63 41.7292 1588.29 41.983C1587.95 42.2367 1587.7 42.5909 1587.52 43.0455C1587.35 43.5 1587.26 44.0303 1587.26 44.6364ZM1598.01 49.1932C1597.46 49.1932 1596.96 49.0909 1596.51 48.8864C1596.06 48.678 1595.71 48.3769 1595.45 47.983C1595.19 47.589 1595.06 47.1061 1595.06 46.5341C1595.06 46.0417 1595.16 45.6364 1595.35 45.3182C1595.53 45 1595.79 44.7481 1596.11 44.5625C1596.43 44.3769 1596.79 44.2367 1597.19 44.142C1597.59 44.0473 1597.99 43.9754 1598.41 43.9261C1598.93 43.8655 1599.35 43.8163 1599.68 43.7784C1600.01 43.7367 1600.24 43.6705 1600.39 43.5795C1600.54 43.4886 1600.61 43.3409 1600.61 43.1364V43.0966C1600.61 42.6004 1600.47 42.2159 1600.19 41.9432C1599.92 41.6705 1599.5 41.5341 1598.95 41.5341C1598.38 41.5341 1597.93 41.661 1597.6 41.9148C1597.28 42.1648 1597.05 42.4432 1596.92 42.75L1595.33 42.3864C1595.52 41.8561 1595.79 41.428 1596.16 41.1023C1596.53 40.7727 1596.95 40.5341 1597.42 40.3864C1597.9 40.2348 1598.4 40.1591 1598.93 40.1591C1599.28 40.1591 1599.65 40.2008 1600.04 40.2841C1600.43 40.3636 1600.8 40.5114 1601.14 40.7273C1601.49 40.9432 1601.77 41.2519 1601.99 41.6534C1602.21 42.0511 1602.32 42.5682 1602.32 43.2045V49H1600.66V47.8068H1600.59C1600.48 48.0265 1600.31 48.2424 1600.1 48.4545C1599.88 48.6667 1599.59 48.8428 1599.25 48.983C1598.9 49.1231 1598.49 49.1932 1598.01 49.1932ZM1598.38 47.8295C1598.85 47.8295 1599.25 47.7367 1599.58 47.5511C1599.92 47.3655 1600.18 47.1231 1600.35 46.8239C1600.53 46.5208 1600.62 46.197 1600.62 45.8523V44.7273C1600.56 44.7879 1600.44 44.8447 1600.27 44.8977C1600.1 44.947 1599.9 44.9905 1599.68 45.0284C1599.46 45.0625 1599.25 45.0947 1599.04 45.125C1598.83 45.1515 1598.66 45.1742 1598.52 45.1932C1598.19 45.2348 1597.88 45.3049 1597.61 45.4034C1597.34 45.5019 1597.13 45.6439 1596.96 45.8295C1596.81 46.0114 1596.73 46.2538 1596.73 46.5568C1596.73 46.9773 1596.88 47.2955 1597.19 47.5114C1597.5 47.7235 1597.9 47.8295 1598.38 47.8295ZM1604.58 49V40.2727H1606.22V41.6591H1606.31C1606.47 41.1894 1606.75 40.8201 1607.15 40.5511C1607.56 40.2784 1608.02 40.142 1608.53 40.142C1608.63 40.142 1608.76 40.1458 1608.9 40.1534C1609.05 40.161 1609.17 40.1705 1609.25 40.1818V41.8068C1609.18 41.7879 1609.06 41.767 1608.89 41.7443C1608.71 41.7178 1608.54 41.7045 1608.36 41.7045C1607.96 41.7045 1607.6 41.7898 1607.29 41.9602C1606.98 42.1269 1606.73 42.3598 1606.55 42.6591C1606.37 42.9545 1606.28 43.2917 1606.28 43.6705V49H1604.58ZM1614.17 49.1761C1613.31 49.1761 1612.57 48.9924 1611.95 48.625C1611.33 48.2538 1610.85 47.733 1610.52 47.0625C1610.18 46.3883 1610.02 45.5985 1610.02 44.6932C1610.02 43.7992 1610.18 43.0114 1610.52 42.3295C1610.85 41.6477 1611.32 41.1155 1611.92 40.733C1612.53 40.3504 1613.24 40.1591 1614.05 40.1591C1614.54 40.1591 1615.02 40.2405 1615.48 40.4034C1615.94 40.5663 1616.36 40.822 1616.73 41.1705C1617.09 41.5189 1617.38 41.9716 1617.6 42.5284C1617.81 43.0814 1617.91 43.7538 1617.91 44.5455V45.1477H1610.98V43.875H1616.25C1616.25 43.428 1616.16 43.0322 1615.98 42.6875C1615.79 42.339 1615.54 42.0644 1615.21 41.8636C1614.88 41.6629 1614.5 41.5625 1614.06 41.5625C1613.58 41.5625 1613.17 41.6799 1612.81 41.9148C1612.46 42.1458 1612.19 42.4489 1611.99 42.8239C1611.8 43.1951 1611.71 43.5985 1611.71 44.0341V45.0284C1611.71 45.6117 1611.81 46.108 1612.02 46.517C1612.22 46.9261 1612.51 47.2386 1612.88 47.4545C1613.26 47.6667 1613.69 47.7727 1614.19 47.7727C1614.51 47.7727 1614.8 47.7273 1615.07 47.6364C1615.33 47.5417 1615.56 47.4015 1615.75 47.2159C1615.95 47.0303 1616.1 46.8011 1616.2 46.5284L1617.81 46.8182C1617.68 47.2917 1617.45 47.7064 1617.11 48.0625C1616.78 48.4148 1616.37 48.6894 1615.87 48.8864C1615.37 49.0795 1614.81 49.1761 1614.17 49.1761ZM1623.47 49.1761C1622.63 49.1761 1621.9 48.9848 1621.29 48.6023C1620.69 48.2159 1620.22 47.6837 1619.89 47.0057C1619.57 46.3277 1619.41 45.5511 1619.41 44.6761C1619.41 43.7898 1619.57 43.0076 1619.91 42.3295C1620.24 41.6477 1620.71 41.1155 1621.32 40.733C1621.92 40.3504 1622.64 40.1591 1623.46 40.1591C1624.12 40.1591 1624.71 40.2822 1625.23 40.5284C1625.75 40.7708 1626.17 41.1117 1626.49 41.5511C1626.81 41.9905 1627 42.5038 1627.06 43.0909H1625.41C1625.32 42.6818 1625.11 42.3295 1624.78 42.0341C1624.46 41.7386 1624.03 41.5909 1623.49 41.5909C1623.01 41.5909 1622.6 41.7159 1622.24 41.9659C1621.89 42.2121 1621.61 42.5644 1621.42 43.0227C1621.22 43.4773 1621.12 44.0152 1621.12 44.6364C1621.12 45.2727 1621.22 45.822 1621.41 46.2841C1621.61 46.7462 1621.88 47.1042 1622.23 47.358C1622.59 47.6117 1623 47.7386 1623.49 47.7386C1623.81 47.7386 1624.1 47.6799 1624.36 47.5625C1624.63 47.4413 1624.85 47.2689 1625.03 47.0455C1625.21 46.822 1625.33 46.553 1625.41 46.2386H1627.06C1627 46.803 1626.82 47.3068 1626.51 47.75C1626.2 48.1932 1625.79 48.5417 1625.28 48.7955C1624.76 49.0492 1624.16 49.1761 1623.47 49.1761ZM1628.88 49V40.2727H1630.58V49H1628.88ZM1629.73 38.9261C1629.44 38.9261 1629.19 38.8277 1628.97 38.6307C1628.76 38.4299 1628.66 38.1913 1628.66 37.9148C1628.66 37.6345 1628.76 37.3958 1628.97 37.1989C1629.19 36.9981 1629.44 36.8977 1629.73 36.8977C1630.03 36.8977 1630.28 36.9981 1630.49 37.1989C1630.7 37.3958 1630.81 37.6345 1630.81 37.9148C1630.81 38.1913 1630.7 38.4299 1630.49 38.6307C1630.28 38.8277 1630.03 38.9261 1629.73 38.9261ZM1636.13 49.1705C1635.42 49.1705 1634.79 48.9905 1634.24 48.6307C1633.69 48.267 1633.26 47.75 1632.95 47.0795C1632.64 46.4053 1632.48 45.5966 1632.48 44.6534C1632.48 43.7102 1632.64 42.9034 1632.95 42.233C1633.27 41.5625 1633.71 41.0492 1634.26 40.6932C1634.81 40.3371 1635.44 40.1591 1636.14 40.1591C1636.68 40.1591 1637.12 40.25 1637.45 40.4318C1637.78 40.6098 1638.04 40.8182 1638.22 41.0568C1638.4 41.2955 1638.55 41.5057 1638.65 41.6875H1638.75V37.3636H1640.45V49H1638.79V47.642H1638.65C1638.55 47.8277 1638.4 48.0398 1638.21 48.2784C1638.02 48.517 1637.76 48.7254 1637.42 48.9034C1637.09 49.0814 1636.66 49.1705 1636.13 49.1705ZM1636.5 47.7216C1636.99 47.7216 1637.4 47.5928 1637.74 47.3352C1638.08 47.0739 1638.34 46.7121 1638.51 46.25C1638.69 45.7879 1638.78 45.25 1638.78 44.6364C1638.78 44.0303 1638.69 43.5 1638.52 43.0455C1638.35 42.5909 1638.09 42.2367 1637.75 41.983C1637.42 41.7292 1637 41.6023 1636.5 41.6023C1635.99 41.6023 1635.57 41.7348 1635.22 42C1634.88 42.2652 1634.63 42.6269 1634.45 43.0852C1634.28 43.5436 1634.2 44.0606 1634.2 44.6364C1634.2 45.2197 1634.28 45.7443 1634.46 46.2102C1634.63 46.6761 1634.89 47.0455 1635.23 47.3182C1635.57 47.5871 1636 47.7216 1636.5 47.7216ZM1645.42 49.1932C1644.86 49.1932 1644.36 49.0909 1643.92 48.8864C1643.47 48.678 1643.12 48.3769 1642.85 47.983C1642.6 47.589 1642.47 47.1061 1642.47 46.5341C1642.47 46.0417 1642.56 45.6364 1642.75 45.3182C1642.94 45 1643.2 44.7481 1643.52 44.5625C1643.84 44.3769 1644.2 44.2367 1644.6 44.142C1645 44.0473 1645.4 43.9754 1645.81 43.9261C1646.34 43.8655 1646.76 43.8163 1647.09 43.7784C1647.41 43.7367 1647.65 43.6705 1647.8 43.5795C1647.94 43.4886 1648.02 43.3409 1648.02 43.1364V43.0966C1648.02 42.6004 1647.88 42.2159 1647.6 41.9432C1647.32 41.6705 1646.91 41.5341 1646.36 41.5341C1645.79 41.5341 1645.34 41.661 1645.01 41.9148C1644.68 42.1648 1644.46 42.4432 1644.33 42.75L1642.73 42.3864C1642.92 41.8561 1643.2 41.428 1643.56 41.1023C1643.93 40.7727 1644.35 40.5341 1644.83 40.3864C1645.31 40.2348 1645.81 40.1591 1646.34 40.1591C1646.69 40.1591 1647.05 40.2008 1647.44 40.2841C1647.84 40.3636 1648.21 40.5114 1648.55 40.7273C1648.89 40.9432 1649.17 41.2519 1649.39 41.6534C1649.61 42.0511 1649.72 42.5682 1649.72 43.2045V49H1648.06V47.8068H1648C1647.89 48.0265 1647.72 48.2424 1647.5 48.4545C1647.28 48.6667 1647 48.8428 1646.65 48.983C1646.31 49.1231 1645.9 49.1932 1645.42 49.1932ZM1645.79 47.8295C1646.26 47.8295 1646.66 47.7367 1646.99 47.5511C1647.33 47.3655 1647.58 47.1231 1647.76 46.8239C1647.94 46.5208 1648.02 46.197 1648.02 45.8523V44.7273C1647.96 44.7879 1647.85 44.8447 1647.67 44.8977C1647.5 44.947 1647.31 44.9905 1647.09 45.0284C1646.87 45.0625 1646.65 45.0947 1646.44 45.125C1646.24 45.1515 1646.06 45.1742 1645.92 45.1932C1645.59 45.2348 1645.29 45.3049 1645.02 45.4034C1644.75 45.5019 1644.53 45.6439 1644.37 45.8295C1644.21 46.0114 1644.13 46.2538 1644.13 46.5568C1644.13 46.9773 1644.29 47.2955 1644.6 47.5114C1644.91 47.7235 1645.3 47.8295 1645.79 47.8295ZM1654.2 47.4091L1654.11 48.0284C1654.05 48.483 1653.96 48.9564 1653.82 49.4489C1653.69 49.9451 1653.55 50.4053 1653.41 50.8295C1653.27 51.2538 1653.15 51.5909 1653.06 51.8409H1651.86C1651.9 51.6061 1651.97 51.2879 1652.06 50.8864C1652.15 50.4886 1652.23 50.0436 1652.32 49.5511C1652.4 49.0587 1652.46 48.5568 1652.5 48.0455L1652.56 47.4091H1654.2ZM1664.55 49.1591C1663.74 49.1591 1663.02 49.0189 1662.39 48.7386C1661.77 48.4583 1661.28 48.072 1660.93 47.5795C1660.58 47.0871 1660.41 46.5265 1660.41 45.8977C1660.41 45.4053 1660.51 44.9527 1660.71 44.5398C1660.92 44.1231 1661.2 43.7765 1661.56 43.5C1661.91 43.2197 1662.31 43.0417 1662.75 42.9659V42.8977C1662.17 42.7576 1661.71 42.447 1661.36 41.9659C1661.01 41.4848 1660.84 40.9318 1660.84 40.3068C1660.84 39.7121 1660.99 39.1818 1661.31 38.7159C1661.63 38.2462 1662.08 37.8769 1662.64 37.608C1663.2 37.339 1663.84 37.2045 1664.55 37.2045C1665.26 37.2045 1665.89 37.3409 1666.45 37.6136C1667.01 37.8826 1667.45 38.2519 1667.77 38.7216C1668.09 39.1875 1668.26 39.7159 1668.26 40.3068C1668.26 40.9318 1668.08 41.4848 1667.73 41.9659C1667.38 42.447 1666.92 42.7576 1666.35 42.8977V42.9659C1666.79 43.0417 1667.18 43.2197 1667.53 43.5C1667.88 43.7765 1668.16 44.1231 1668.37 44.5398C1668.58 44.9527 1668.69 45.4053 1668.69 45.8977C1668.69 46.5265 1668.51 47.0871 1668.16 47.5795C1667.81 48.072 1667.32 48.4583 1666.69 48.7386C1666.07 49.0189 1665.36 49.1591 1664.55 49.1591ZM1664.55 47.7216C1665.03 47.7216 1665.45 47.642 1665.8 47.483C1666.15 47.3201 1666.43 47.0947 1666.62 46.8068C1666.81 46.5152 1666.91 46.1742 1666.91 45.7841C1666.91 45.3788 1666.8 45.0208 1666.6 44.7102C1666.39 44.3996 1666.11 44.1553 1665.76 43.9773C1665.41 43.7992 1665.01 43.7102 1664.55 43.7102C1664.09 43.7102 1663.69 43.7992 1663.33 43.9773C1662.97 44.1553 1662.69 44.3996 1662.49 44.7102C1662.28 45.0208 1662.18 45.3788 1662.19 45.7841C1662.18 46.1742 1662.28 46.5152 1662.47 46.8068C1662.66 47.0947 1662.93 47.3201 1663.29 47.483C1663.65 47.642 1664.07 47.7216 1664.55 47.7216ZM1664.55 42.3068C1664.94 42.3068 1665.28 42.2292 1665.58 42.0739C1665.88 41.9186 1666.11 41.7027 1666.28 41.4261C1666.46 41.1496 1666.55 40.8258 1666.55 40.4545C1666.55 40.0909 1666.46 39.7727 1666.29 39.5C1666.12 39.2273 1665.89 39.017 1665.59 38.8693C1665.29 38.7178 1664.95 38.642 1664.55 38.642C1664.15 38.642 1663.8 38.7178 1663.49 38.8693C1663.2 39.017 1662.96 39.2273 1662.8 39.5C1662.63 39.7727 1662.55 40.0909 1662.55 40.4545C1662.55 40.8258 1662.63 41.1496 1662.8 41.4261C1662.97 41.7027 1663.21 41.9186 1663.51 42.0739C1663.81 42.2292 1664.16 42.3068 1664.55 42.3068ZM1670.48 46.7273V45.3068L1675.51 37.3636H1676.63V39.4545H1675.92L1672.33 45.1477V45.2386H1679.22V46.7273H1670.48ZM1676 49V46.2955L1676.01 45.6477V37.3636H1677.68V49H1676Z" fill="#717171"/>
<rect x="1700.09" y="47.9695" width="15.4607" height="4.02467" rx="2.01234" transform="rotate(-45 1700.09 47.9695)" fill="#00C677"/>
<rect x="1694.85" y="37" width="15.4621" height="4.02467" rx="2.01234" transform="rotate(45 1694.85 37)" fill="#00C677"/>
<rect x="610" y="20" width="699" height="46" rx="8" fill="#F7F7F7"/>
<circle cx="630.5" cy="41.5" r="8" stroke="#00C677" stroke-width="3"/>
<path d="M637.759 47.7515L642.534 52.9336C643.066 53.5107 643.029 54.4097 642.452 54.9415C641.875 55.4733 640.976 55.4365 640.444 54.8594L635.669 49.6773C635.137 49.1002 635.174 48.2012 635.751 47.6694C636.328 47.1376 637.227 47.1744 637.759 47.7515Z" fill="#00C677" stroke="#00C677"/>
<path d="M661.321 49V38.0909H665.135C665.895 38.0909 666.522 38.2223 667.015 38.4851C667.509 38.7443 667.876 39.0941 668.118 39.5344C668.359 39.9712 668.48 40.456 668.48 40.9886C668.48 41.4574 668.397 41.8445 668.23 42.1499C668.066 42.4553 667.85 42.6967 667.58 42.8743C667.314 43.0518 667.024 43.1832 666.712 43.2685V43.375C667.045 43.3963 667.381 43.5135 667.718 43.7266C668.056 43.9396 668.338 44.245 668.565 44.6428C668.793 45.0405 668.906 45.527 668.906 46.1023C668.906 46.6491 668.782 47.141 668.533 47.5778C668.285 48.0146 667.892 48.3608 667.356 48.6165C666.82 48.8722 666.122 49 665.263 49H661.321ZM662.642 47.8281H665.263C666.126 47.8281 666.738 47.6612 667.1 47.3274C667.466 46.9901 667.649 46.5817 667.649 46.1023C667.649 45.733 667.555 45.392 667.367 45.0795C667.179 44.7635 666.911 44.5114 666.562 44.3232C666.214 44.1314 665.803 44.0355 665.327 44.0355H662.642V47.8281ZM662.642 42.8849H665.092C665.49 42.8849 665.849 42.8068 666.168 42.6506C666.491 42.4943 666.747 42.2741 666.935 41.9901C667.127 41.706 667.223 41.3722 667.223 40.9886C667.223 40.5092 667.056 40.1026 666.722 39.7688C666.388 39.4315 665.859 39.2628 665.135 39.2628H662.642V42.8849ZM676.063 45.6548V40.8182H677.32V49H676.063V47.6151H675.977C675.786 48.0305 675.487 48.3839 675.083 48.6751C674.678 48.9627 674.166 49.1065 673.548 49.1065C673.037 49.1065 672.583 48.9947 672.185 48.771C671.787 48.5437 671.475 48.2028 671.247 47.7482C671.02 47.2901 670.906 46.7131 670.906 46.017V40.8182H672.164V45.9318C672.164 46.5284 672.33 47.0043 672.664 47.3594C673.002 47.7145 673.431 47.892 673.953 47.892C674.266 47.892 674.584 47.8121 674.907 47.6523C675.233 47.4925 675.507 47.2475 675.727 46.9173C675.951 46.587 676.063 46.1662 676.063 45.6548ZM685.418 42.6506L684.288 42.9702C684.217 42.782 684.113 42.5991 683.974 42.4215C683.839 42.2404 683.655 42.0913 683.42 41.9741C683.186 41.8569 682.886 41.7983 682.52 41.7983C682.019 41.7983 681.602 41.9137 681.268 42.1445C680.938 42.3718 680.773 42.6612 680.773 43.0128C680.773 43.3253 680.886 43.5721 681.114 43.7532C681.341 43.9343 681.696 44.0852 682.179 44.206L683.394 44.5043C684.125 44.6818 684.67 44.9535 685.029 45.3192C685.388 45.6815 685.567 46.1484 685.567 46.7202C685.567 47.1889 685.432 47.608 685.162 47.9773C684.896 48.3466 684.523 48.6378 684.043 48.8509C683.564 49.0639 683.006 49.1705 682.371 49.1705C681.536 49.1705 680.846 48.9893 680.299 48.6271C679.752 48.2649 679.406 47.7358 679.26 47.0398L680.453 46.7415C680.567 47.1818 680.782 47.5121 681.098 47.7322C681.417 47.9524 681.835 48.0625 682.35 48.0625C682.935 48.0625 683.401 47.9382 683.745 47.6896C684.093 47.4375 684.267 47.1357 684.267 46.7841C684.267 46.5 684.168 46.2621 683.969 46.0703C683.77 45.875 683.465 45.7294 683.053 45.6335L681.689 45.3139C680.94 45.1364 680.389 44.8612 680.038 44.4883C679.69 44.1119 679.516 43.6413 679.516 43.0767C679.516 42.6151 679.645 42.2067 679.905 41.8516C680.167 41.4964 680.524 41.2177 680.975 41.0153C681.43 40.8129 681.945 40.7116 682.52 40.7116C683.33 40.7116 683.965 40.8892 684.427 41.2443C684.892 41.5994 685.222 42.0682 685.418 42.6506ZM693.042 52.0682V47.7429H692.935C692.843 47.892 692.711 48.0803 692.541 48.3075C692.37 48.5312 692.127 48.7319 691.811 48.9094C691.495 49.0835 691.074 49.1705 690.549 49.1705C689.867 49.1705 689.265 48.9982 688.743 48.6538C688.221 48.3058 687.813 47.8157 687.518 47.1836C687.223 46.5479 687.076 45.7969 687.076 44.9304C687.076 44.071 687.223 43.3253 687.518 42.6932C687.813 42.0611 688.223 41.5728 688.748 41.2283C689.274 40.8839 689.881 40.7116 690.57 40.7116C691.103 40.7116 691.523 40.8004 691.832 40.978C692.145 41.152 692.383 41.3509 692.546 41.5746C692.713 41.7947 692.843 41.9759 692.935 42.1179H693.084V40.8182H694.299V52.0682H693.042ZM690.719 48.0412C691.223 48.0412 691.65 47.9098 691.998 47.647C692.346 47.3807 692.61 47.0131 692.791 46.5444C692.972 46.0721 693.063 45.527 693.063 44.9091C693.063 44.2983 692.974 43.7638 692.797 43.3058C692.619 42.8441 692.356 42.4854 692.008 42.2298C691.66 41.9705 691.23 41.8409 690.719 41.8409C690.186 41.8409 689.743 41.9776 689.387 42.2511C689.036 42.521 688.771 42.8885 688.594 43.3537C688.42 43.8153 688.333 44.3338 688.333 44.9091C688.333 45.4915 688.422 46.0206 688.599 46.4964C688.78 46.9687 689.047 47.3452 689.398 47.6257C689.753 47.9027 690.194 48.0412 690.719 48.0412ZM701.756 45.6548V40.8182H703.013V49H701.756V47.6151H701.671C701.479 48.0305 701.181 48.3839 700.776 48.6751C700.371 48.9627 699.86 49.1065 699.242 49.1065C698.73 49.1065 698.276 48.9947 697.878 48.771C697.48 48.5437 697.168 48.2028 696.941 47.7482C696.713 47.2901 696.6 46.7131 696.6 46.017V40.8182H697.857V45.9318C697.857 46.5284 698.024 47.0043 698.358 47.3594C698.695 47.7145 699.125 47.892 699.647 47.892C699.959 47.892 700.277 47.8121 700.6 47.6523C700.927 47.4925 701.2 47.2475 701.42 46.9173C701.644 46.587 701.756 46.1662 701.756 45.6548ZM708.746 49.1705C707.958 49.1705 707.278 48.9964 706.706 48.6484C706.138 48.2969 705.699 47.8068 705.39 47.1783C705.085 46.5462 704.932 45.8111 704.932 44.973C704.932 44.1349 705.085 43.3963 705.39 42.7571C705.699 42.1143 706.129 41.6136 706.679 41.255C707.233 40.8928 707.88 40.7116 708.618 40.7116C709.044 40.7116 709.465 40.7827 709.881 40.9247C710.296 41.0668 710.674 41.2976 711.015 41.6172C711.356 41.9332 711.628 42.3523 711.83 42.8743C712.033 43.3963 712.134 44.0391 712.134 44.8026V45.3352H705.827V44.2486H710.855C710.855 43.7869 710.763 43.375 710.578 43.0128C710.397 42.6506 710.138 42.3647 709.801 42.1552C709.467 41.9457 709.073 41.8409 708.618 41.8409C708.117 41.8409 707.684 41.9652 707.318 42.2138C706.956 42.4588 706.677 42.7784 706.482 43.1726C706.287 43.5668 706.189 43.9893 706.189 44.4403V45.1648C706.189 45.7827 706.296 46.3065 706.509 46.7362C706.725 47.1623 707.025 47.4872 707.409 47.7109C707.793 47.9311 708.238 48.0412 708.746 48.0412C709.076 48.0412 709.375 47.995 709.641 47.9027C709.911 47.8068 710.143 47.6648 710.339 47.4766C710.534 47.2848 710.685 47.0469 710.791 46.7628L712.006 47.1037C711.878 47.5156 711.663 47.8778 711.361 48.1903C711.06 48.4993 710.687 48.7408 710.243 48.9148C709.799 49.0852 709.3 49.1705 708.746 49.1705ZM718.265 52.0682V40.8182H719.479V42.1179H719.628C719.721 41.9759 719.849 41.7947 720.012 41.5746C720.179 41.3509 720.417 41.152 720.726 40.978C721.038 40.8004 721.461 40.7116 721.994 40.7116C722.682 40.7116 723.29 40.8839 723.815 41.2283C724.341 41.5728 724.751 42.0611 725.046 42.6932C725.34 43.3253 725.488 44.071 725.488 44.9304C725.488 45.7969 725.34 46.5479 725.046 47.1836C724.751 47.8157 724.343 48.3058 723.821 48.6538C723.299 48.9982 722.697 49.1705 722.015 49.1705C721.489 49.1705 721.068 49.0835 720.752 48.9094C720.436 48.7319 720.193 48.5312 720.023 48.3075C719.852 48.0803 719.721 47.892 719.628 47.7429H719.522V52.0682H718.265ZM719.501 44.9091C719.501 45.527 719.591 46.0721 719.772 46.5444C719.953 47.0131 720.218 47.3807 720.566 47.647C720.914 47.9098 721.34 48.0412 721.844 48.0412C722.37 48.0412 722.809 47.9027 723.16 47.6257C723.515 47.3452 723.782 46.9687 723.959 46.4964C724.14 46.0206 724.231 45.4915 724.231 44.9091C724.231 44.3338 724.142 43.8153 723.964 43.3537C723.79 42.8885 723.526 42.521 723.171 42.2511C722.819 41.9776 722.377 41.8409 721.844 41.8409C721.333 41.8409 720.903 41.9705 720.555 42.2298C720.207 42.4854 719.945 42.8441 719.767 43.3058C719.589 43.7638 719.501 44.2983 719.501 44.9091ZM730.729 49.1705C729.991 49.1705 729.343 48.9947 728.785 48.6431C728.231 48.2915 727.798 47.7997 727.485 47.1676C727.176 46.5355 727.022 45.7969 727.022 44.9517C727.022 44.0994 727.176 43.3555 727.485 42.7198C727.798 42.0842 728.231 41.5906 728.785 41.239C729.343 40.8874 729.991 40.7116 730.729 40.7116C731.468 40.7116 732.114 40.8874 732.668 41.239C733.226 41.5906 733.659 42.0842 733.968 42.7198C734.28 43.3555 734.437 44.0994 734.437 44.9517C734.437 45.7969 734.28 46.5355 733.968 47.1676C733.659 47.7997 733.226 48.2915 732.668 48.6431C732.114 48.9947 731.468 49.1705 730.729 49.1705ZM730.729 48.0412C731.29 48.0412 731.752 47.8974 732.114 47.6097C732.476 47.3221 732.745 46.9439 732.919 46.4751C733.093 46.0064 733.18 45.4986 733.18 44.9517C733.18 44.4048 733.093 43.8952 732.919 43.4229C732.745 42.9506 732.476 42.5689 732.114 42.2777C731.752 41.9865 731.29 41.8409 730.729 41.8409C730.168 41.8409 729.707 41.9865 729.344 42.2777C728.982 42.5689 728.714 42.9506 728.54 43.4229C728.366 43.8952 728.279 44.4048 728.279 44.9517C728.279 45.4986 728.366 46.0064 728.54 46.4751C728.714 46.9439 728.982 47.3221 729.344 47.6097C729.707 47.8974 730.168 48.0412 730.729 48.0412ZM736.356 49V40.8182H737.57V42.054H737.655C737.805 41.6491 738.074 41.3207 738.465 41.0685C738.856 40.8164 739.296 40.6903 739.786 40.6903C739.878 40.6903 739.994 40.6921 740.132 40.6957C740.271 40.6992 740.376 40.7045 740.447 40.7116V41.9901C740.404 41.9794 740.306 41.9634 740.154 41.9421C740.004 41.9173 739.846 41.9048 739.68 41.9048C739.282 41.9048 738.927 41.9883 738.614 42.1552C738.305 42.3185 738.06 42.5458 737.879 42.837C737.702 43.1246 737.613 43.4531 737.613 43.8224V49H736.356ZM746.155 49V40.8182H747.37V42.0966H747.476C747.647 41.6598 747.922 41.3207 748.302 41.0792C748.682 40.8342 749.138 40.7116 749.671 40.7116C750.211 40.7116 750.66 40.8342 751.019 41.0792C751.381 41.3207 751.663 41.6598 751.866 42.0966H751.951C752.16 41.674 752.475 41.3384 752.894 41.0898C753.313 40.8377 753.815 40.7116 754.401 40.7116C755.133 40.7116 755.731 40.9407 756.196 41.3988C756.661 41.8533 756.894 42.5618 756.894 43.5241V49H755.637V43.5241C755.637 42.9205 755.472 42.489 755.142 42.2298C754.811 41.9705 754.422 41.8409 753.975 41.8409C753.4 41.8409 752.954 42.0149 752.638 42.3629C752.322 42.7074 752.164 43.1442 752.164 43.6733V49H750.886V43.3963C750.886 42.9311 750.735 42.5565 750.433 42.2724C750.131 41.9847 749.742 41.8409 749.266 41.8409C748.94 41.8409 748.634 41.9279 748.35 42.1019C748.07 42.2759 747.842 42.5174 747.668 42.8263C747.498 43.1317 747.413 43.4851 747.413 43.8864V49H746.155ZM762.623 49.1705C761.835 49.1705 761.155 48.9964 760.583 48.6484C760.015 48.2969 759.576 47.8068 759.267 47.1783C758.962 46.5462 758.809 45.8111 758.809 44.973C758.809 44.1349 758.962 43.3963 759.267 42.7571C759.576 42.1143 760.006 41.6136 760.556 41.255C761.11 40.8928 761.756 40.7116 762.495 40.7116C762.921 40.7116 763.342 40.7827 763.758 40.9247C764.173 41.0668 764.551 41.2976 764.892 41.6172C765.233 41.9332 765.505 42.3523 765.707 42.8743C765.91 43.3963 766.011 44.0391 766.011 44.8026V45.3352H759.704V44.2486H764.732C764.732 43.7869 764.64 43.375 764.455 43.0128C764.274 42.6506 764.015 42.3647 763.678 42.1552C763.344 41.9457 762.95 41.8409 762.495 41.8409C761.994 41.8409 761.561 41.9652 761.195 42.2138C760.833 42.4588 760.554 42.7784 760.359 43.1726C760.164 43.5668 760.066 43.9893 760.066 44.4403V45.1648C760.066 45.7827 760.173 46.3065 760.386 46.7362C760.602 47.1623 760.902 47.4872 761.286 47.7109C761.669 47.9311 762.115 48.0412 762.623 48.0412C762.953 48.0412 763.252 47.995 763.518 47.9027C763.788 47.8068 764.02 47.6648 764.216 47.4766C764.411 47.2848 764.562 47.0469 764.668 46.7628L765.883 47.1037C765.755 47.5156 765.54 47.8778 765.238 48.1903C764.937 48.4993 764.564 48.7408 764.12 48.9148C763.676 49.0852 763.177 49.1705 762.623 49.1705ZM767.923 49V40.8182H769.138V42.054H769.223C769.372 41.6491 769.642 41.3207 770.032 41.0685C770.423 40.8164 770.863 40.6903 771.353 40.6903C771.446 40.6903 771.561 40.6921 771.7 40.6957C771.838 40.6992 771.943 40.7045 772.014 40.7116V41.9901C771.971 41.9794 771.874 41.9634 771.721 41.9421C771.572 41.9173 771.414 41.9048 771.247 41.9048C770.849 41.9048 770.494 41.9883 770.182 42.1552C769.873 42.3185 769.628 42.5458 769.446 42.837C769.269 43.1246 769.18 43.4531 769.18 43.8224V49H767.923ZM776.579 49.1705C775.812 49.1705 775.151 48.9893 774.597 48.6271C774.043 48.2649 773.617 47.766 773.319 47.1303C773.021 46.4947 772.872 45.7685 772.872 44.9517C772.872 44.1207 773.024 43.3874 773.33 42.7518C773.639 42.1126 774.068 41.6136 774.619 41.255C775.173 40.8928 775.819 40.7116 776.558 40.7116C777.133 40.7116 777.651 40.8182 778.113 41.0312C778.575 41.2443 778.953 41.5426 779.248 41.9261C779.542 42.3097 779.725 42.7571 779.796 43.2685H778.539C778.443 42.8956 778.23 42.5653 777.9 42.2777C777.573 41.9865 777.133 41.8409 776.579 41.8409C776.089 41.8409 775.659 41.9687 775.29 42.2244C774.924 42.4766 774.638 42.8335 774.432 43.2951C774.23 43.7532 774.129 44.2912 774.129 44.9091C774.129 45.5412 774.228 46.0916 774.427 46.5604C774.629 47.0291 774.913 47.3931 775.279 47.6523C775.649 47.9116 776.082 48.0412 776.579 48.0412C776.906 48.0412 777.202 47.9844 777.468 47.8707C777.735 47.7571 777.96 47.5938 778.145 47.3807C778.33 47.1676 778.461 46.9119 778.539 46.6136H779.796C779.725 47.0966 779.549 47.5316 779.269 47.9187C778.992 48.3022 778.624 48.6076 778.166 48.8349C777.712 49.0586 777.183 49.1705 776.579 49.1705ZM784.042 49.1918C783.523 49.1918 783.053 49.0941 782.63 48.8988C782.207 48.6999 781.872 48.4141 781.623 48.0412C781.375 47.6648 781.25 47.2102 781.25 46.6776C781.25 46.2088 781.343 45.8288 781.527 45.5376C781.712 45.2429 781.959 45.0121 782.268 44.8452C782.577 44.6783 782.918 44.554 783.291 44.4723C783.667 44.3871 784.045 44.3196 784.425 44.2699C784.922 44.206 785.325 44.158 785.634 44.1261C785.947 44.0906 786.174 44.032 786.316 43.9503C786.462 43.8686 786.535 43.7266 786.535 43.5241V43.4815C786.535 42.956 786.391 42.5476 786.103 42.2564C785.819 41.9652 785.388 41.8196 784.809 41.8196C784.209 41.8196 783.738 41.951 783.397 42.2138C783.056 42.4766 782.816 42.7571 782.678 43.0554L781.485 42.6293C781.698 42.1321 781.982 41.745 782.337 41.468C782.696 41.1875 783.086 40.9922 783.509 40.8821C783.935 40.7685 784.354 40.7116 784.766 40.7116C785.029 40.7116 785.331 40.7436 785.672 40.8075C786.016 40.8679 786.348 40.994 786.668 41.1857C786.991 41.3775 787.259 41.6669 787.472 42.054C787.685 42.4411 787.792 42.9595 787.792 43.6094V49H786.535V47.892H786.471C786.385 48.0696 786.243 48.2596 786.044 48.462C785.846 48.6644 785.581 48.8366 785.251 48.9787C784.921 49.1207 784.517 49.1918 784.042 49.1918ZM784.233 48.0625C784.731 48.0625 785.15 47.9648 785.491 47.7695C785.835 47.5742 786.094 47.3221 786.268 47.0131C786.446 46.7042 786.535 46.3793 786.535 46.0384V44.8878C786.481 44.9517 786.364 45.0103 786.183 45.0636C786.005 45.1133 785.799 45.1577 785.565 45.1967C785.334 45.2322 785.109 45.2642 784.889 45.2926C784.672 45.3175 784.496 45.3388 784.361 45.3565C784.035 45.3991 783.729 45.4684 783.445 45.5643C783.165 45.6566 782.937 45.7969 782.763 45.9851C782.593 46.1697 782.508 46.4219 782.508 46.7415C782.508 47.1783 782.669 47.5085 782.992 47.7322C783.319 47.9524 783.733 48.0625 784.233 48.0625ZM793.176 49.1705C792.494 49.1705 791.892 48.9982 791.37 48.6538C790.848 48.3058 790.439 47.8157 790.145 47.1836C789.85 46.5479 789.703 45.7969 789.703 44.9304C789.703 44.071 789.85 43.3253 790.145 42.6932C790.439 42.0611 790.85 41.5728 791.375 41.2283C791.901 40.8839 792.508 40.7116 793.197 40.7116C793.73 40.7116 794.15 40.8004 794.459 40.978C794.772 41.152 795.01 41.3509 795.173 41.5746C795.34 41.7947 795.47 41.9759 795.562 42.1179H795.669V38.0909H796.926V49H795.711V47.7429H795.562C795.47 47.892 795.338 48.0803 795.168 48.3075C794.997 48.5312 794.754 48.7319 794.438 48.9094C794.122 49.0835 793.701 49.1705 793.176 49.1705ZM793.346 48.0412C793.85 48.0412 794.276 47.9098 794.624 47.647C794.972 47.3807 795.237 47.0131 795.418 46.5444C795.599 46.0721 795.69 45.527 795.69 44.9091C795.69 44.2983 795.601 43.7638 795.423 43.3058C795.246 42.8441 794.983 42.4854 794.635 42.2298C794.287 41.9705 793.857 41.8409 793.346 41.8409C792.813 41.8409 792.369 41.9776 792.014 42.2511C791.663 42.521 791.398 42.8885 791.221 43.3537C791.047 43.8153 790.96 44.3338 790.96 44.9091C790.96 45.4915 791.048 46.0206 791.226 46.4964C791.407 46.9687 791.673 47.3452 792.025 47.6257C792.38 47.9027 792.82 48.0412 793.346 48.0412ZM802.726 49.1705C801.988 49.1705 801.34 48.9947 800.782 48.6431C800.228 48.2915 799.795 47.7997 799.482 47.1676C799.173 46.5355 799.019 45.7969 799.019 44.9517C799.019 44.0994 799.173 43.3555 799.482 42.7198C799.795 42.0842 800.228 41.5906 800.782 41.239C801.34 40.8874 801.988 40.7116 802.726 40.7116C803.465 40.7116 804.111 40.8874 804.665 41.239C805.223 41.5906 805.656 42.0842 805.965 42.7198C806.278 43.3555 806.434 44.0994 806.434 44.9517C806.434 45.7969 806.278 46.5355 805.965 47.1676C805.656 47.7997 805.223 48.2915 804.665 48.6431C804.111 48.9947 803.465 49.1705 802.726 49.1705ZM802.726 48.0412C803.287 48.0412 803.749 47.8974 804.111 47.6097C804.474 47.3221 804.742 46.9439 804.916 46.4751C805.09 46.0064 805.177 45.4986 805.177 44.9517C805.177 44.4048 805.09 43.8952 804.916 43.4229C804.742 42.9506 804.474 42.5689 804.111 42.2777C803.749 41.9865 803.287 41.8409 802.726 41.8409C802.165 41.8409 801.704 41.9865 801.341 42.2777C800.979 42.5689 800.711 42.9506 800.537 43.4229C800.363 43.8952 800.276 44.4048 800.276 44.9517C800.276 45.4986 800.363 46.0064 800.537 46.4751C800.711 46.9439 800.979 47.3221 801.341 47.6097C801.704 47.8974 802.165 48.0412 802.726 48.0412ZM814.148 42.6506L813.019 42.9702C812.948 42.782 812.843 42.5991 812.705 42.4215C812.57 42.2404 812.385 42.0913 812.151 41.9741C811.916 41.8569 811.616 41.7983 811.25 41.7983C810.75 41.7983 810.332 41.9137 809.999 42.1445C809.668 42.3718 809.503 42.6612 809.503 43.0128C809.503 43.3253 809.617 43.5721 809.844 43.7532C810.071 43.9343 810.427 44.0852 810.91 44.206L812.124 44.5043C812.856 44.6818 813.401 44.9535 813.759 45.3192C814.118 45.6815 814.297 46.1484 814.297 46.7202C814.297 47.1889 814.162 47.608 813.892 47.9773C813.626 48.3466 813.253 48.6378 812.774 48.8509C812.294 49.0639 811.737 49.1705 811.101 49.1705C810.267 49.1705 809.576 48.9893 809.029 48.6271C808.482 48.2649 808.136 47.7358 807.991 47.0398L809.184 46.7415C809.297 47.1818 809.512 47.5121 809.828 47.7322C810.148 47.9524 810.565 48.0625 811.08 48.0625C811.666 48.0625 812.131 47.9382 812.476 47.6896C812.824 47.4375 812.998 47.1357 812.998 46.7841C812.998 46.5 812.898 46.2621 812.699 46.0703C812.5 45.875 812.195 45.7294 811.783 45.6335L810.419 45.3139C809.67 45.1364 809.12 44.8612 808.768 44.4883C808.42 44.1119 808.246 43.6413 808.246 43.0767C808.246 42.6151 808.376 42.2067 808.635 41.8516C808.898 41.4964 809.255 41.2177 809.706 41.0153C810.16 40.8129 810.675 40.7116 811.25 40.7116C812.06 40.7116 812.696 40.8892 813.157 41.2443C813.623 41.5994 813.953 42.0682 814.148 42.6506Z" fill="#A7A7A7"/>
<path d="M57.1546 61.4994C57.4138 62.8504 56.5575 64.1464 55.2377 64.3977C53.9178 64.649 52.6372 63.7615 52.378 62.4184C52.1187 61.0674 52.9829 59.7714 54.3028 59.5201C55.6226 59.2688 56.9032 60.1563 57.1624 61.5073L57.1546 61.4994Z" fill="#00C677"/>
<path d="M45.5267 63.7301C45.7859 65.0811 44.9296 66.3771 43.6097 66.6284C42.2899 66.8798 41.0093 65.9922 40.7501 64.6491C40.4908 63.2981 41.355 62.0022 42.667 61.7508C43.9868 61.4995 45.2674 62.387 45.5267 63.738V63.7301Z" fill="#00C677"/>
<path d="M58.686 34.1105C57.814 33.3094 56.5962 32.9795 55.3471 33.223L29.8143 38.1242C29.6336 38.1556 29.4608 38.2027 29.2958 38.2577L27.6381 35.0138C27.3082 34.3697 26.6875 33.9299 25.9726 33.8435L18.4699 32.8774C17.2757 32.7203 16.1759 33.5686 16.0187 34.7625C15.8616 35.9563 16.7101 37.0559 17.9042 37.213L24.26 38.0299L26.1297 41.6901L32.124 53.189L34.6538 58.1294C35.8086 60.2972 38.5033 61.5853 40.9152 61.1219L56.9498 58.043C58.1361 57.8152 58.9138 56.6685 58.686 55.4825C58.4582 54.2964 57.3112 53.5189 56.1249 53.7466L40.0903 56.8256C39.5718 56.9277 38.7626 56.535 38.5269 56.103L38.0712 55.2154L54.5458 52.0579C56.6748 51.6495 58.4582 49.7173 58.6939 47.5652L59.8173 37.3701C59.9587 36.1056 59.5345 34.9195 58.6703 34.1105H58.686ZM55.1035 40.3784L50.327 41.2973L49.832 38.7289L55.4021 37.6607L55.1035 40.3862V40.3784ZM46.0296 42.1221L42.2743 42.8447L41.7794 40.2763L45.5347 39.5537L46.0296 42.1221ZM35.8558 50.6363L34.8345 48.7198L38.8018 47.9579L39.2968 50.5263L36.6885 51.029C36.4528 51.0761 35.9657 50.8405 35.8558 50.6284V50.6363ZM43.0992 47.1332L46.8545 46.4106L47.3494 48.979L43.5942 49.7016L43.0992 47.1332ZM37.482 41.0931L37.977 43.6615L32.6819 44.6748L31.3934 42.2556L37.482 41.0853V41.0931ZM53.7366 47.7615L51.6468 48.1621L51.1519 45.5937L54.6008 44.9339L54.3651 47.0861C54.3415 47.3295 53.9723 47.7223 53.7366 47.7615Z" fill="#00C677"/>
<path d="M36.2377 21.6668L33.6055 25.5479L37.4874 28.1795L40.1196 24.2984L36.2377 21.6668Z" fill="#00C677"/>
<path d="M52.0152 25.0458L48.9785 28.6194L52.5529 31.6554L55.5896 28.0818L52.0152 25.0458Z" fill="#00C677"/>
<path d="M35.24 29.697L31.1406 31.9753L33.4195 36.0737L37.5188 33.7954L35.24 29.697Z" fill="#00C677"/>
<path d="M45.5865 29.079L44.3936 32.4229L47.7382 33.6155L48.9311 30.2717L45.5865 29.079Z" fill="#00C677"/>
<path d="M42.0053 26.7542L38.9854 28.6218L40.8534 31.6411L43.8734 29.7734L42.0053 26.7542Z" fill="#00C677"/>
<path d="M47.3524 22.8811L45.9092 25.4128L48.4415 26.8557L49.8847 24.324L47.3524 22.8811Z" fill="#00C677"/>
<path d="M37.2635 17.0001L35.8203 19.5317L38.3526 20.9746L39.7958 18.4429L37.2635 17.0001Z" fill="#00C677"/>
<path d="M47.3404 18.3608L46.7812 21.2207L49.6418 21.7797L50.2009 18.9198L47.3404 18.3608Z" fill="#00C677"/>
<path d="M30.6093 26.1142L29.3965 28.7639L32.0468 29.9765L33.2597 27.3268L30.6093 26.1142Z" fill="#00C677"/>
<path d="M41.9794 21.1313L41.3545 23.9775L44.2014 24.6023L44.8263 21.756L41.9794 21.1313Z" fill="#00C677"/>
</svg>
