<svg width="44" height="50" viewBox="0 0 44 50" fill="none" xmlns="http://www.w3.org/2000/svg">
<path d="M41.1546 44.4994C41.4138 45.8504 40.5575 47.1464 39.2377 47.3977C37.9178 47.649 36.6372 46.7615 36.378 45.4184C36.1187 44.0674 36.9829 42.7714 38.3028 42.5201C39.6226 42.2688 40.9032 43.1563 41.1624 44.5073L41.1546 44.4994Z" fill="white"/>
<path d="M29.5267 46.7301C29.7859 48.0811 28.9296 49.3771 27.6097 49.6284C26.2899 49.8798 25.0093 48.9922 24.7501 47.6491C24.4908 46.2981 25.355 45.0022 26.667 44.7508C27.9868 44.4995 29.2674 45.387 29.5267 46.738V46.7301Z" fill="white"/>
<path d="M42.686 17.1105C41.814 16.3094 40.5962 15.9795 39.3471 16.223L13.8143 21.1242C13.6336 21.1556 13.4608 21.2027 13.2958 21.2577L11.6381 18.0138C11.3082 17.3697 10.6875 16.9299 9.97261 16.8435L2.46988 15.8774C1.27574 15.7203 0.175865 16.5686 0.0187406 17.7625C-0.138384 18.9563 0.710085 20.0559 1.90423 20.213L8.25996 21.0299L10.1297 24.6901L16.124 36.189L18.6538 41.1294C19.8086 43.2972 22.5033 44.5853 24.9152 44.1219L40.9498 41.043C42.1361 40.8152 42.9138 39.6685 42.686 38.4825C42.4582 37.2964 41.3112 36.5189 40.1249 36.7466L24.0903 39.8256C23.5718 39.9277 22.7626 39.535 22.5269 39.103L22.0712 38.2154L38.5458 35.0579C40.6748 34.6495 42.4582 32.7173 42.6939 30.5652L43.8173 20.3701C43.9587 19.1056 43.5345 17.9195 42.6703 17.1105H42.686ZM39.1035 23.3784L34.327 24.2973L33.832 21.7289L39.4021 20.6607L39.1035 23.3862V23.3784ZM30.0296 25.1221L26.2743 25.8447L25.7794 23.2763L29.5347 22.5537L30.0296 25.1221ZM19.8558 33.6363L18.8345 31.7198L22.8018 30.9579L23.2968 33.5263L20.6885 34.029C20.4528 34.0761 19.9657 33.8405 19.8558 33.6284V33.6363ZM27.0992 30.1332L30.8545 29.4106L31.3494 31.979L27.5942 32.7016L27.0992 30.1332ZM21.482 24.0931L21.977 26.6615L16.6819 27.6748L15.3934 25.2556L21.482 24.0853V24.0931ZM37.7366 30.7615L35.6468 31.1621L35.1519 28.5937L38.6008 27.9339L38.3651 30.0861C38.3415 30.3295 37.9723 30.7223 37.7366 30.7615Z" fill="white"/>
<path d="M20.2377 4.66683L17.6055 8.54785L21.4874 11.1795L24.1196 7.29843L20.2377 4.66683Z" fill="white"/>
<path d="M36.0152 8.04582L32.9785 11.6194L36.5529 14.6554L39.5896 11.0818L36.0152 8.04582Z" fill="white"/>
<path d="M19.24 12.697L15.1406 14.9753L17.4195 19.0737L21.5188 16.7954L19.24 12.697Z" fill="white"/>
<path d="M29.5865 12.079L28.3936 15.4229L31.7382 16.6155L32.9311 13.2717L29.5865 12.079Z" fill="white"/>
<path d="M26.0053 9.75418L22.9854 11.6218L24.8534 14.6411L27.8734 12.7734L26.0053 9.75418Z" fill="white"/>
<path d="M31.3524 5.88113L29.9092 8.41284L32.4415 9.85573L33.8847 7.32402L31.3524 5.88113Z" fill="white"/>
<path d="M21.2635 5.02422e-05L19.8203 2.53174L22.3526 3.97462L23.7958 1.44293L21.2635 5.02422e-05Z" fill="white"/>
<path d="M31.3404 1.36083L30.7812 4.2207L33.6418 4.77972L34.2009 1.91985L31.3404 1.36083Z" fill="white"/>
<path d="M14.6093 9.1142L13.3965 11.7639L16.0468 12.9765L17.2597 10.3268L14.6093 9.1142Z" fill="white"/>
<path d="M25.9794 4.13128L25.3545 6.97754L28.2014 7.60228L28.8263 4.75603L25.9794 4.13128Z" fill="white"/>
</svg>
